<mxfile host="app.diagrams.net" agent="Mozilla/5.0 (Windows NT 10.0; Win64; x64) AppleWebKit/537.36 (KHTML, like Gecko) Chrome/129.0.0.0 Safari/537.36 Edg/129.0.0.0" scale="1" border="0" version="24.7.17">
  <diagram name="PÃ¡gina-1" id="v2dG6gvhrDBx7uOPlUMe">
    <mxGraphModel dx="4753" dy="4828" grid="1" gridSize="10" guides="1" tooltips="1" connect="1" arrows="1" fold="1" page="1" pageScale="1" pageWidth="827" pageHeight="1169" math="0" shadow="0">
      <root>
        <mxCell id="0" />
        <mxCell id="1" parent="0" />
        <mxCell id="ud1zYiJCpAEsLUOgTDbe-18" value="SHARED" style="swimlane;horizontal=0;whiteSpace=wrap;html=1;fontSize=20;fontStyle=1;labelBackgroundColor=none;labelBorderColor=none;startSize=40;fillColor=#CF70FF;gradientColor=none;swimlaneFillColor=#FCF7FF;rounded=0;" parent="1" vertex="1">
          <mxGeometry x="320" y="80" width="5920" height="1560" as="geometry">
            <mxRectangle x="70" y="130" width="40" height="120" as="alternateBounds" />
          </mxGeometry>
        </mxCell>
        <mxCell id="ud1zYiJCpAEsLUOgTDbe-583" value="" style="group;flipV=1;fillColor=default;rounded=1;glass=0;shadow=0;" parent="ud1zYiJCpAEsLUOgTDbe-18" vertex="1" connectable="0">
          <mxGeometry x="1300" y="590" width="546.25" height="360" as="geometry" />
        </mxCell>
        <mxCell id="ud1zYiJCpAEsLUOgTDbe-584" value="Application" style="rounded=1;whiteSpace=wrap;html=1;fontSize=18;fillColor=none;fontStyle=1;verticalAlign=top;container=1;" parent="ud1zYiJCpAEsLUOgTDbe-583" vertex="1">
          <mxGeometry width="546.25" height="360" as="geometry" />
        </mxCell>
        <mxCell id="ud1zYiJCpAEsLUOgTDbe-585" value="" style="group" parent="ud1zYiJCpAEsLUOgTDbe-584" vertex="1" connectable="0">
          <mxGeometry x="85.00068965517244" y="80.00372759856623" width="360" height="220" as="geometry" />
        </mxCell>
        <mxCell id="ud1zYiJCpAEsLUOgTDbe-586" value="DTOs" style="rounded=1;whiteSpace=wrap;html=1;fontSize=18;fillColor=#63D6FF;fontStyle=1;verticalAlign=top;" parent="ud1zYiJCpAEsLUOgTDbe-585" vertex="1">
          <mxGeometry width="360" height="220" as="geometry" />
        </mxCell>
        <mxCell id="ud1zYiJCpAEsLUOgTDbe-587" value="pagination" style="rounded=1;whiteSpace=wrap;html=1;fontSize=12;fillColor=#00BBFF;fontStyle=1;fontColor=#ffffff;" parent="ud1zYiJCpAEsLUOgTDbe-585" vertex="1">
          <mxGeometry x="84.99931034482762" y="90.10494623655912" width="90" height="39.784946236559136" as="geometry" />
        </mxCell>
        <mxCell id="ud1zYiJCpAEsLUOgTDbe-588" value="query-options" style="rounded=1;whiteSpace=wrap;html=1;fontSize=12;fillColor=#00BBFF;fontStyle=1;fontColor=#ffffff;" parent="ud1zYiJCpAEsLUOgTDbe-585" vertex="1">
          <mxGeometry x="184.99931034482756" y="90.10318996415761" width="90" height="39.784946236559136" as="geometry" />
        </mxCell>
        <mxCell id="ud1zYiJCpAEsLUOgTDbe-628" value="" style="group;flipV=1;fillColor=default;rounded=1;glass=0;shadow=0;" parent="ud1zYiJCpAEsLUOgTDbe-18" vertex="1" connectable="0">
          <mxGeometry x="1300" y="990" width="546.25" height="360" as="geometry" />
        </mxCell>
        <mxCell id="ud1zYiJCpAEsLUOgTDbe-629" value="Enums" style="rounded=1;whiteSpace=wrap;html=1;fontSize=18;fillColor=none;fontStyle=1;verticalAlign=top;container=1;" parent="ud1zYiJCpAEsLUOgTDbe-628" vertex="1">
          <mxGeometry width="546.25" height="360" as="geometry" />
        </mxCell>
        <mxCell id="ud1zYiJCpAEsLUOgTDbe-632" value="gender" style="rounded=1;whiteSpace=wrap;html=1;fontSize=12;fillColor=#00BBFF;fontStyle=1;fontColor=#ffffff;" parent="ud1zYiJCpAEsLUOgTDbe-629" vertex="1">
          <mxGeometry x="236.75000000000006" y="170.10867383512533" width="90" height="39.784946236559136" as="geometry" />
        </mxCell>
        <mxCell id="ud1zYiJCpAEsLUOgTDbe-634" value="" style="group;flipV=1;fillColor=default;rounded=1;glass=0;shadow=0;" parent="ud1zYiJCpAEsLUOgTDbe-18" vertex="1" connectable="0">
          <mxGeometry x="4106.75" y="590" width="546.25" height="360" as="geometry" />
        </mxCell>
        <mxCell id="ud1zYiJCpAEsLUOgTDbe-635" value="Patterns" style="rounded=1;whiteSpace=wrap;html=1;fontSize=18;fillColor=none;fontStyle=1;verticalAlign=top;container=1;" parent="ud1zYiJCpAEsLUOgTDbe-634" vertex="1">
          <mxGeometry width="546.25" height="360" as="geometry" />
        </mxCell>
        <mxCell id="ud1zYiJCpAEsLUOgTDbe-636" value="email" style="rounded=1;whiteSpace=wrap;html=1;fontSize=12;fillColor=#00BBFF;fontStyle=1;fontColor=#ffffff;" parent="ud1zYiJCpAEsLUOgTDbe-635" vertex="1">
          <mxGeometry x="178.62000000000006" y="110.10867383512533" width="90" height="39.784946236559136" as="geometry" />
        </mxCell>
        <mxCell id="ud1zYiJCpAEsLUOgTDbe-637" value="hexadecimal-color" style="rounded=1;whiteSpace=wrap;html=1;fontSize=12;fillColor=#00BBFF;fontStyle=1;fontColor=#ffffff;" parent="ud1zYiJCpAEsLUOgTDbe-635" vertex="1">
          <mxGeometry x="207.62" y="210.11" width="130" height="39.78" as="geometry" />
        </mxCell>
        <mxCell id="ud1zYiJCpAEsLUOgTDbe-638" value="url" style="rounded=1;whiteSpace=wrap;html=1;fontSize=12;fillColor=#00BBFF;fontStyle=1;fontColor=#ffffff;" parent="ud1zYiJCpAEsLUOgTDbe-635" vertex="1">
          <mxGeometry x="227.62" y="160.21867383512534" width="90" height="39.784946236559136" as="geometry" />
        </mxCell>
        <mxCell id="ud1zYiJCpAEsLUOgTDbe-639" value="username" style="rounded=1;whiteSpace=wrap;html=1;fontSize=12;fillColor=#00BBFF;fontStyle=1;fontColor=#ffffff;" parent="ud1zYiJCpAEsLUOgTDbe-635" vertex="1">
          <mxGeometry x="277.62" y="110.10867383512533" width="90" height="39.784946236559136" as="geometry" />
        </mxCell>
        <mxCell id="ud1zYiJCpAEsLUOgTDbe-640" value="" style="group;flipV=1;fillColor=default;rounded=1;glass=0;shadow=0;" parent="ud1zYiJCpAEsLUOgTDbe-18" vertex="1" connectable="0">
          <mxGeometry x="4106.75" y="990" width="546.25" height="360" as="geometry" />
        </mxCell>
        <mxCell id="ud1zYiJCpAEsLUOgTDbe-641" value="Types" style="rounded=1;whiteSpace=wrap;html=1;fontSize=18;fillColor=none;fontStyle=1;verticalAlign=top;container=1;" parent="ud1zYiJCpAEsLUOgTDbe-640" vertex="1">
          <mxGeometry width="546.25" height="360" as="geometry" />
        </mxCell>
        <mxCell id="ud1zYiJCpAEsLUOgTDbe-642" value="optional" style="rounded=1;whiteSpace=wrap;html=1;fontSize=12;fillColor=#00BBFF;fontStyle=1;fontColor=#ffffff;" parent="ud1zYiJCpAEsLUOgTDbe-641" vertex="1">
          <mxGeometry x="178.63000000000005" y="135.04867383512533" width="90" height="39.784946236559136" as="geometry" />
        </mxCell>
        <mxCell id="ud1zYiJCpAEsLUOgTDbe-644" value="query" style="rounded=1;whiteSpace=wrap;html=1;fontSize=12;fillColor=#00BBFF;fontStyle=1;fontColor=#ffffff;" parent="ud1zYiJCpAEsLUOgTDbe-641" vertex="1">
          <mxGeometry x="227.63" y="185.15867383512534" width="90" height="39.784946236559136" as="geometry" />
        </mxCell>
        <mxCell id="ud1zYiJCpAEsLUOgTDbe-645" value="pagination" style="rounded=1;whiteSpace=wrap;html=1;fontSize=12;fillColor=#00BBFF;fontStyle=1;fontColor=#ffffff;" parent="ud1zYiJCpAEsLUOgTDbe-641" vertex="1">
          <mxGeometry x="277.63" y="135.04867383512533" width="90" height="39.784946236559136" as="geometry" />
        </mxCell>
        <mxCell id="ud1zYiJCpAEsLUOgTDbe-748" value="" style="group" parent="ud1zYiJCpAEsLUOgTDbe-18" vertex="1" connectable="0">
          <mxGeometry x="1894.75" y="600" width="2161.63" height="740" as="geometry" />
        </mxCell>
        <mxCell id="ud1zYiJCpAEsLUOgTDbe-678" value="&lt;div&gt;Infrastructure&lt;/div&gt;&lt;div&gt;&lt;font color=&quot;#3b3b3b&quot; style=&quot;font-size: 16px;&quot;&gt;( shared module )&lt;/font&gt;&lt;br&gt;&lt;/div&gt;" style="rounded=1;whiteSpace=wrap;html=1;fontSize=18;fillColor=default;fontStyle=1;verticalAlign=top;container=1;" parent="ud1zYiJCpAEsLUOgTDbe-748" vertex="1">
          <mxGeometry width="2161.63" height="740" as="geometry" />
        </mxCell>
        <mxCell id="ud1zYiJCpAEsLUOgTDbe-679" value="" style="group" parent="ud1zYiJCpAEsLUOgTDbe-748" vertex="1" connectable="0">
          <mxGeometry x="120" y="70" width="1080" height="290" as="geometry" />
        </mxCell>
        <mxCell id="ud1zYiJCpAEsLUOgTDbe-680" value="Database" style="rounded=1;whiteSpace=wrap;html=1;fontSize=18;fillColor=#EAF0FC;fontStyle=1;verticalAlign=top;" parent="ud1zYiJCpAEsLUOgTDbe-679" vertex="1">
          <mxGeometry width="1080" height="290" as="geometry" />
        </mxCell>
        <mxCell id="ud1zYiJCpAEsLUOgTDbe-681" value="" style="group" parent="ud1zYiJCpAEsLUOgTDbe-679" vertex="1" connectable="0">
          <mxGeometry x="50.00068965517221" y="75.0006884678979" width="220" height="140" as="geometry" />
        </mxCell>
        <mxCell id="ud1zYiJCpAEsLUOgTDbe-682" value="In memory" style="rounded=1;whiteSpace=wrap;html=1;fontSize=12;fillColor=#787C82;fontStyle=1;fontColor=#ffffff;verticalAlign=top;" parent="ud1zYiJCpAEsLUOgTDbe-681" vertex="1">
          <mxGeometry width="220" height="139.9986230642042" as="geometry" />
        </mxCell>
        <mxCell id="ud1zYiJCpAEsLUOgTDbe-683" value="Repositories" style="rounded=1;whiteSpace=wrap;html=1;fontSize=12;fillColor=#3E3F42;fontStyle=1;fontColor=#ffffff;verticalAlign=top;" parent="ud1zYiJCpAEsLUOgTDbe-681" vertex="1">
          <mxGeometry x="10" y="28.999714777585154" width="200" height="100.99900663917589" as="geometry" />
        </mxCell>
        <mxCell id="ud1zYiJCpAEsLUOgTDbe-684" value="base-in-memory" style="rounded=1;whiteSpace=wrap;html=1;fontSize=12;fillColor=#151517;fontStyle=1;fontColor=#ffffff;" parent="ud1zYiJCpAEsLUOgTDbe-681" vertex="1">
          <mxGeometry x="45" y="68.99932136735778" width="130" height="39.779608753528876" as="geometry" />
        </mxCell>
        <mxCell id="ud1zYiJCpAEsLUOgTDbe-685" value="" style="group" parent="ud1zYiJCpAEsLUOgTDbe-679" vertex="1" connectable="0">
          <mxGeometry x="300.0006896551722" y="75.00308827028486" width="720" height="140" as="geometry" />
        </mxCell>
        <mxCell id="ud1zYiJCpAEsLUOgTDbe-686" value="Prisma" style="rounded=1;whiteSpace=wrap;html=1;fontSize=12;fillColor=#787C82;fontStyle=1;fontColor=#ffffff;verticalAlign=top;" parent="ud1zYiJCpAEsLUOgTDbe-685" vertex="1">
          <mxGeometry width="720" height="140" as="geometry" />
        </mxCell>
        <mxCell id="ud1zYiJCpAEsLUOgTDbe-687" value="" style="group" parent="ud1zYiJCpAEsLUOgTDbe-685" vertex="1" connectable="0">
          <mxGeometry x="30.75" y="28.999714777585154" width="200" height="101" as="geometry" />
        </mxCell>
        <mxCell id="ud1zYiJCpAEsLUOgTDbe-688" value="Migrations" style="rounded=1;whiteSpace=wrap;html=1;fontSize=12;fillColor=#3E3F42;fontStyle=1;fontColor=#ffffff;verticalAlign=middle;" parent="ud1zYiJCpAEsLUOgTDbe-687" vertex="1">
          <mxGeometry width="120" height="101" as="geometry" />
        </mxCell>
        <mxCell id="ud1zYiJCpAEsLUOgTDbe-690" value="" style="group" parent="ud1zYiJCpAEsLUOgTDbe-685" vertex="1" connectable="0">
          <mxGeometry x="260.75" y="28.999714777585154" width="200" height="100.99900663917589" as="geometry" />
        </mxCell>
        <mxCell id="ud1zYiJCpAEsLUOgTDbe-691" value="Repositories" style="rounded=1;whiteSpace=wrap;html=1;fontSize=12;fillColor=#3E3F42;fontStyle=1;fontColor=#ffffff;verticalAlign=top;" parent="ud1zYiJCpAEsLUOgTDbe-690" vertex="1">
          <mxGeometry width="200" height="100.99900663917589" as="geometry" />
        </mxCell>
        <mxCell id="ud1zYiJCpAEsLUOgTDbe-692" value="base-prisma" style="rounded=1;whiteSpace=wrap;html=1;fontSize=12;fillColor=#151517;fontStyle=1;fontColor=#ffffff;" parent="ud1zYiJCpAEsLUOgTDbe-690" vertex="1">
          <mxGeometry x="35" y="39.999606589772625" width="130" height="39.779608753528876" as="geometry" />
        </mxCell>
        <mxCell id="ud1zYiJCpAEsLUOgTDbe-717" value="" style="group" parent="ud1zYiJCpAEsLUOgTDbe-685" vertex="1" connectable="0">
          <mxGeometry x="490.75" y="28.99971477758504" width="200" height="100.99900663917589" as="geometry" />
        </mxCell>
        <mxCell id="ud1zYiJCpAEsLUOgTDbe-718" value="Services" style="rounded=1;whiteSpace=wrap;html=1;fontSize=12;fillColor=#3E3F42;fontStyle=1;fontColor=#ffffff;verticalAlign=top;" parent="ud1zYiJCpAEsLUOgTDbe-717" vertex="1">
          <mxGeometry width="200" height="100.99900663917589" as="geometry" />
        </mxCell>
        <mxCell id="ud1zYiJCpAEsLUOgTDbe-719" value="prisma" style="rounded=1;whiteSpace=wrap;html=1;fontSize=12;fillColor=#151517;fontStyle=1;fontColor=#ffffff;" parent="ud1zYiJCpAEsLUOgTDbe-717" vertex="1">
          <mxGeometry x="35" y="39.999606589772625" width="130" height="39.779608753528876" as="geometry" />
        </mxCell>
        <mxCell id="9z5yvFTdleW5HIJSlaxR-25" value="schema" style="shape=cylinder3;whiteSpace=wrap;html=1;boundedLbl=1;backgroundOutline=1;size=9.66961074523374;fillColor=#909299;strokeColor=default;fontColor=#FFFFFF;" vertex="1" parent="ud1zYiJCpAEsLUOgTDbe-685">
          <mxGeometry x="175.25" y="47.249714777585154" width="55.5" height="64.5" as="geometry" />
        </mxCell>
        <mxCell id="ud1zYiJCpAEsLUOgTDbe-694" value="" style="group" parent="ud1zYiJCpAEsLUOgTDbe-748" vertex="1" connectable="0">
          <mxGeometry x="1230" y="89.9990754859657" width="808.5" height="270" as="geometry" />
        </mxCell>
        <mxCell id="ud1zYiJCpAEsLUOgTDbe-695" value="&lt;div&gt;Http&lt;/div&gt;" style="rounded=1;whiteSpace=wrap;html=1;fontSize=18;fillColor=#FFD89E;fontStyle=1;verticalAlign=top;" parent="ud1zYiJCpAEsLUOgTDbe-694" vertex="1">
          <mxGeometry y="-20" width="808.5" height="290" as="geometry" />
        </mxCell>
        <mxCell id="ud1zYiJCpAEsLUOgTDbe-696" value="" style="group" parent="ud1zYiJCpAEsLUOgTDbe-694" vertex="1" connectable="0">
          <mxGeometry x="49.25068965517221" y="50.00308827028486" width="220" height="170" as="geometry" />
        </mxCell>
        <mxCell id="ud1zYiJCpAEsLUOgTDbe-697" value="" style="group" parent="ud1zYiJCpAEsLUOgTDbe-696" vertex="1" connectable="0">
          <mxGeometry width="220" height="170" as="geometry" />
        </mxCell>
        <mxCell id="ud1zYiJCpAEsLUOgTDbe-698" value="Interceptors" style="rounded=1;whiteSpace=wrap;html=1;fontSize=12;fillColor=#FFA45E;fontStyle=1;fontColor=#ffffff;verticalAlign=top;" parent="ud1zYiJCpAEsLUOgTDbe-697" vertex="1">
          <mxGeometry width="220" height="170" as="geometry" />
        </mxCell>
        <mxCell id="ud1zYiJCpAEsLUOgTDbe-699" value="response" style="rounded=1;whiteSpace=wrap;html=1;fontSize=12;fillColor=#FF8A05;fontStyle=1;fontColor=#ffffff;verticalAlign=middle;" parent="ud1zYiJCpAEsLUOgTDbe-697" vertex="1">
          <mxGeometry x="61.25" y="65" width="97.5" height="40" as="geometry" />
        </mxCell>
        <mxCell id="ud1zYiJCpAEsLUOgTDbe-700" value="" style="group" parent="ud1zYiJCpAEsLUOgTDbe-694" vertex="1" connectable="0">
          <mxGeometry x="299.2506896551722" y="50.00308827028486" width="460" height="170" as="geometry" />
        </mxCell>
        <mxCell id="ud1zYiJCpAEsLUOgTDbe-701" value="" style="group" parent="ud1zYiJCpAEsLUOgTDbe-700" vertex="1" connectable="0">
          <mxGeometry width="460" height="170" as="geometry" />
        </mxCell>
        <mxCell id="ud1zYiJCpAEsLUOgTDbe-702" value="Filters" style="rounded=1;whiteSpace=wrap;html=1;fontSize=12;fillColor=#FFA45E;fontStyle=1;fontColor=#ffffff;verticalAlign=top;" parent="ud1zYiJCpAEsLUOgTDbe-701" vertex="1">
          <mxGeometry width="460" height="170" as="geometry" />
        </mxCell>
        <mxCell id="ud1zYiJCpAEsLUOgTDbe-703" value="all-exception" style="rounded=1;whiteSpace=wrap;html=1;fontSize=12;fillColor=#FF8A05;fontStyle=1;fontColor=#ffffff;" parent="ud1zYiJCpAEsLUOgTDbe-701" vertex="1">
          <mxGeometry x="84.99931034482779" y="40.104646279591535" width="90" height="39.78" as="geometry" />
        </mxCell>
        <mxCell id="ud1zYiJCpAEsLUOgTDbe-704" value="conflict-error" style="rounded=1;whiteSpace=wrap;html=1;fontSize=12;fillColor=#FF8A05;fontStyle=1;fontColor=#ffffff;" parent="ud1zYiJCpAEsLUOgTDbe-701" vertex="1">
          <mxGeometry x="185.9993103448278" y="40.104646279591506" width="90" height="39.78" as="geometry" />
        </mxCell>
        <mxCell id="ud1zYiJCpAEsLUOgTDbe-707" value="invalid-credentials-error" style="rounded=1;whiteSpace=wrap;html=1;fontSize=12;fillColor=#FF8A05;fontStyle=1;fontColor=#ffffff;" parent="ud1zYiJCpAEsLUOgTDbe-701" vertex="1">
          <mxGeometry x="147.87" y="90.11" width="164.25" height="39.78" as="geometry" />
        </mxCell>
        <mxCell id="ud1zYiJCpAEsLUOgTDbe-708" value="not-found-error" style="rounded=1;whiteSpace=wrap;html=1;fontSize=12;fillColor=#FF8A05;fontStyle=1;fontColor=#ffffff;" parent="ud1zYiJCpAEsLUOgTDbe-701" vertex="1">
          <mxGeometry x="287.75" y="40.1" width="114.25" height="39.78" as="geometry" />
        </mxCell>
        <mxCell id="ud1zYiJCpAEsLUOgTDbe-720" value="" style="group" parent="ud1zYiJCpAEsLUOgTDbe-748" vertex="1" connectable="0">
          <mxGeometry x="120" y="390" width="1080" height="290" as="geometry" />
        </mxCell>
        <mxCell id="ud1zYiJCpAEsLUOgTDbe-721" value="&lt;div&gt;Environments&lt;/div&gt;&lt;div&gt;&lt;font style=&quot;font-size: 16px;&quot; color=&quot;#3b3b3b&quot;&gt;( environments module )&lt;/font&gt;&lt;br&gt;&lt;/div&gt;" style="rounded=1;whiteSpace=wrap;html=1;fontSize=18;fillColor=#FCD1E9;fontStyle=1;verticalAlign=top;" parent="ud1zYiJCpAEsLUOgTDbe-720" vertex="1">
          <mxGeometry width="1080" height="290" as="geometry" />
        </mxCell>
        <mxCell id="ud1zYiJCpAEsLUOgTDbe-722" value="" style="group" parent="ud1zYiJCpAEsLUOgTDbe-720" vertex="1" connectable="0">
          <mxGeometry x="430.0006896551722" y="90.0006884678979" width="220" height="139.9986230642042" as="geometry" />
        </mxCell>
        <mxCell id="ud1zYiJCpAEsLUOgTDbe-723" value="Services" style="rounded=1;whiteSpace=wrap;html=1;fontSize=12;fillColor=#FCABD9;fontStyle=1;fontColor=#ffffff;verticalAlign=top;" parent="ud1zYiJCpAEsLUOgTDbe-722" vertex="1">
          <mxGeometry width="220" height="139.9986230642042" as="geometry" />
        </mxCell>
        <mxCell id="ud1zYiJCpAEsLUOgTDbe-724" value="environments" style="rounded=1;whiteSpace=wrap;html=1;fontSize=12;fillColor=#FC8DC8;fontStyle=1;fontColor=#ffffff;verticalAlign=middle;" parent="ud1zYiJCpAEsLUOgTDbe-722" vertex="1">
          <mxGeometry x="45" y="50" width="130" height="40" as="geometry" />
        </mxCell>
        <mxCell id="ud1zYiJCpAEsLUOgTDbe-747" value="" style="group" parent="ud1zYiJCpAEsLUOgTDbe-748" vertex="1" connectable="0">
          <mxGeometry x="1230" y="390" width="810" height="290" as="geometry" />
        </mxCell>
        <mxCell id="ud1zYiJCpAEsLUOgTDbe-737" value="&lt;div&gt;Services&lt;/div&gt;" style="rounded=1;whiteSpace=wrap;html=1;fontSize=18;fillColor=#FCD1E9;fontStyle=1;verticalAlign=top;" parent="ud1zYiJCpAEsLUOgTDbe-747" vertex="1">
          <mxGeometry width="809.9999999999999" height="290" as="geometry" />
        </mxCell>
        <mxCell id="ud1zYiJCpAEsLUOgTDbe-746" value="message" style="rounded=1;whiteSpace=wrap;html=1;fontSize=12;fillColor=#FC8DC8;fontStyle=1;fontColor=#ffffff;verticalAlign=middle;container=0;" parent="ud1zYiJCpAEsLUOgTDbe-747" vertex="1">
          <mxGeometry x="340.0006896551722" y="115.00068846789782" width="130" height="40" as="geometry" />
        </mxCell>
        <mxCell id="ud1zYiJCpAEsLUOgTDbe-598" value="" style="group;flipV=1;fillColor=default;rounded=1;" parent="ud1zYiJCpAEsLUOgTDbe-18" vertex="1" connectable="0">
          <mxGeometry x="2080.5699999999997" y="180" width="1790" height="360" as="geometry" />
        </mxCell>
        <mxCell id="ud1zYiJCpAEsLUOgTDbe-599" value="Domain" style="rounded=1;whiteSpace=wrap;html=1;fontSize=18;fillColor=none;fontStyle=1;verticalAlign=top;container=1;" parent="ud1zYiJCpAEsLUOgTDbe-598" vertex="1">
          <mxGeometry width="1790" height="360" as="geometry">
            <mxRectangle width="100" height="40" as="alternateBounds" />
          </mxGeometry>
        </mxCell>
        <mxCell id="ud1zYiJCpAEsLUOgTDbe-600" value="" style="group" parent="ud1zYiJCpAEsLUOgTDbe-599" vertex="1" connectable="0">
          <mxGeometry x="110.50068965517244" y="70.00372759856623" width="360" height="220" as="geometry" />
        </mxCell>
        <mxCell id="ud1zYiJCpAEsLUOgTDbe-601" value="Entities" style="rounded=1;whiteSpace=wrap;html=1;fontSize=18;fillColor=#FF866E;fontStyle=1;verticalAlign=top;" parent="ud1zYiJCpAEsLUOgTDbe-600" vertex="1">
          <mxGeometry width="360" height="220" as="geometry" />
        </mxCell>
        <mxCell id="ud1zYiJCpAEsLUOgTDbe-602" value="base-entity" style="rounded=1;whiteSpace=wrap;html=1;fontSize=12;fillColor=#FF3300;fontStyle=1;fontColor=#ffffff;" parent="ud1zYiJCpAEsLUOgTDbe-600" vertex="1">
          <mxGeometry x="134.99931034482762" y="90.10494623655912" width="90" height="39.784946236559136" as="geometry" />
        </mxCell>
        <mxCell id="ud1zYiJCpAEsLUOgTDbe-603" value="" style="group;" parent="ud1zYiJCpAEsLUOgTDbe-599" vertex="1" connectable="0">
          <mxGeometry x="510.5" y="70" width="360" height="220" as="geometry" />
        </mxCell>
        <mxCell id="ud1zYiJCpAEsLUOgTDbe-604" value="Repositories" style="rounded=1;whiteSpace=wrap;html=1;fontSize=18;fillColor=#FF866E;fontStyle=1;verticalAlign=top;horizontal=1;container=0;" parent="ud1zYiJCpAEsLUOgTDbe-603" vertex="1">
          <mxGeometry width="360" height="220" as="geometry" />
        </mxCell>
        <mxCell id="ud1zYiJCpAEsLUOgTDbe-605" value="base-repository" style="rounded=1;whiteSpace=wrap;html=1;fontSize=12;fillColor=#FF3300;fontStyle=1;fontColor=#ffffff;" parent="ud1zYiJCpAEsLUOgTDbe-603" vertex="1">
          <mxGeometry x="122.5" y="90.11" width="115" height="39.78" as="geometry" />
        </mxCell>
        <mxCell id="ud1zYiJCpAEsLUOgTDbe-606" value="" style="group" parent="ud1zYiJCpAEsLUOgTDbe-599" vertex="1" connectable="0">
          <mxGeometry x="910.5006896551724" y="70.00372759856623" width="360" height="220" as="geometry" />
        </mxCell>
        <mxCell id="ud1zYiJCpAEsLUOgTDbe-607" value="Value Objects" style="rounded=1;whiteSpace=wrap;html=1;fontSize=18;fillColor=#FF866E;fontStyle=1;verticalAlign=top;" parent="ud1zYiJCpAEsLUOgTDbe-606" vertex="1">
          <mxGeometry width="360" height="220" as="geometry" />
        </mxCell>
        <mxCell id="ud1zYiJCpAEsLUOgTDbe-612" value="image-url" style="rounded=1;whiteSpace=wrap;html=1;fontSize=12;fillColor=#FF3300;fontStyle=1;fontColor=#ffffff;" parent="ud1zYiJCpAEsLUOgTDbe-606" vertex="1">
          <mxGeometry x="134.99931034482756" y="90.10494623655909" width="90" height="39.784946236559136" as="geometry" />
        </mxCell>
        <mxCell id="ud1zYiJCpAEsLUOgTDbe-616" value="" style="group" parent="ud1zYiJCpAEsLUOgTDbe-599" vertex="1" connectable="0">
          <mxGeometry x="1319.5006896551724" y="70.00372759856623" width="360" height="220" as="geometry" />
        </mxCell>
        <mxCell id="ud1zYiJCpAEsLUOgTDbe-617" value="Errors" style="rounded=1;whiteSpace=wrap;html=1;fontSize=18;fillColor=#FF866E;fontStyle=1;verticalAlign=top;" parent="ud1zYiJCpAEsLUOgTDbe-616" vertex="1">
          <mxGeometry width="360" height="220" as="geometry" />
        </mxCell>
        <mxCell id="ud1zYiJCpAEsLUOgTDbe-618" value="conflict" style="rounded=1;whiteSpace=wrap;html=1;fontSize=12;fillColor=#FF3300;fontStyle=1;fontColor=#ffffff;" parent="ud1zYiJCpAEsLUOgTDbe-616" vertex="1">
          <mxGeometry x="83.49931034482756" y="65.16494623655909" width="90" height="39.784946236559136" as="geometry" />
        </mxCell>
        <mxCell id="ud1zYiJCpAEsLUOgTDbe-619" value="invalid-credentials" style="rounded=1;whiteSpace=wrap;html=1;fontSize=12;fillColor=#FF3300;fontStyle=1;fontColor=#ffffff;" parent="ud1zYiJCpAEsLUOgTDbe-616" vertex="1">
          <mxGeometry x="116.5" y="115.06" width="130" height="39.78" as="geometry" />
        </mxCell>
        <mxCell id="ud1zYiJCpAEsLUOgTDbe-620" value="not-found" style="rounded=1;whiteSpace=wrap;html=1;fontSize=12;fillColor=#FF3300;fontStyle=1;fontColor=#ffffff;" parent="ud1zYiJCpAEsLUOgTDbe-616" vertex="1">
          <mxGeometry x="186.49931034482756" y="65.16494623655915" width="90" height="39.784946236559136" as="geometry" />
        </mxCell>
        <mxCell id="ud1zYiJCpAEsLUOgTDbe-302" style="edgeStyle=orthogonalEdgeStyle;rounded=0;orthogonalLoop=1;jettySize=auto;html=1;strokeColor=#A50040;strokeWidth=4;entryX=0.5;entryY=0;entryDx=0;entryDy=0;" parent="1" edge="1">
          <mxGeometry relative="1" as="geometry">
            <mxPoint x="4131.250689655172" y="-1004.9978362437496" as="targetPoint" />
            <mxPoint x="3930" y="-1335" as="sourcePoint" />
            <Array as="points">
              <mxPoint x="3930" y="-1335" />
              <mxPoint x="3930" y="-1240" />
              <mxPoint x="4251" y="-1240" />
            </Array>
          </mxGeometry>
        </mxCell>
        <mxCell id="ud1zYiJCpAEsLUOgTDbe-389" value="FEATURES" style="swimlane;horizontal=0;whiteSpace=wrap;html=1;fontSize=20;fontStyle=1;labelBackgroundColor=none;labelBorderColor=none;startSize=40;fillColor=#7AE4FF;gradientColor=none;swimlaneFillColor=#F5FAFF;rounded=0;swimlaneLine=1;" parent="1" vertex="1">
          <mxGeometry x="320" y="-1820" width="5920" height="1820" as="geometry">
            <mxRectangle x="70" y="130" width="40" height="120" as="alternateBounds" />
          </mxGeometry>
        </mxCell>
        <mxCell id="ud1zYiJCpAEsLUOgTDbe-390" value="ARTICLES" style="swimlane;horizontal=1;whiteSpace=wrap;html=1;fontSize=20;fontStyle=1;labelBackgroundColor=none;labelBorderColor=none;startSize=40;fillColor=#4F9BFF;swimlaneFillColor=#F5FAFF;" parent="ud1zYiJCpAEsLUOgTDbe-389" vertex="1">
          <mxGeometry x="158" y="90" width="1970" height="1620" as="geometry">
            <mxRectangle x="158.5" y="90" width="40" height="120" as="alternateBounds" />
          </mxGeometry>
        </mxCell>
        <mxCell id="ud1zYiJCpAEsLUOgTDbe-391" value="" style="group;flipV=1;fillColor=default;rounded=1;glass=0;shadow=0;" parent="ud1zYiJCpAEsLUOgTDbe-390" vertex="1" connectable="0">
          <mxGeometry x="520.75" y="110" width="930" height="360" as="geometry" />
        </mxCell>
        <mxCell id="ud1zYiJCpAEsLUOgTDbe-392" value="Application" style="rounded=1;whiteSpace=wrap;html=1;fontSize=18;fillColor=none;fontStyle=1;verticalAlign=top;container=1;" parent="ud1zYiJCpAEsLUOgTDbe-391" vertex="1">
          <mxGeometry width="930" height="360" as="geometry" />
        </mxCell>
        <mxCell id="ud1zYiJCpAEsLUOgTDbe-393" value="" style="group" parent="ud1zYiJCpAEsLUOgTDbe-392" vertex="1" connectable="0">
          <mxGeometry x="85.00068965517244" y="95.00372759856623" width="360" height="220" as="geometry" />
        </mxCell>
        <mxCell id="ud1zYiJCpAEsLUOgTDbe-394" value="DTOs" style="rounded=1;whiteSpace=wrap;html=1;fontSize=18;fillColor=#63D6FF;fontStyle=1;verticalAlign=top;" parent="ud1zYiJCpAEsLUOgTDbe-393" vertex="1">
          <mxGeometry width="360" height="220" as="geometry" />
        </mxCell>
        <mxCell id="ud1zYiJCpAEsLUOgTDbe-395" value="&lt;div&gt;create-article&lt;/div&gt;" style="rounded=1;whiteSpace=wrap;html=1;fontSize=12;fillColor=#00BBFF;fontStyle=1;fontColor=#ffffff;" parent="ud1zYiJCpAEsLUOgTDbe-393" vertex="1">
          <mxGeometry x="84.99931034482762" y="90.10494623655912" width="90" height="39.784946236559136" as="geometry" />
        </mxCell>
        <mxCell id="ud1zYiJCpAEsLUOgTDbe-396" value="&lt;div&gt;update-article&lt;/div&gt;" style="rounded=1;whiteSpace=wrap;html=1;fontSize=12;fillColor=#00BBFF;fontStyle=1;fontColor=#ffffff;" parent="ud1zYiJCpAEsLUOgTDbe-393" vertex="1">
          <mxGeometry x="184.99931034482756" y="90.10318996415761" width="90" height="39.784946236559136" as="geometry" />
        </mxCell>
        <mxCell id="ud1zYiJCpAEsLUOgTDbe-397" value="" style="group;" parent="ud1zYiJCpAEsLUOgTDbe-392" vertex="1" connectable="0">
          <mxGeometry x="485" y="95" width="360" height="220" as="geometry" />
        </mxCell>
        <mxCell id="ud1zYiJCpAEsLUOgTDbe-398" value="Usecases" style="rounded=1;whiteSpace=wrap;html=1;fontSize=18;fillColor=#66B2FF;fontStyle=1;verticalAlign=top;horizontal=1;container=0;" parent="ud1zYiJCpAEsLUOgTDbe-397" vertex="1">
          <mxGeometry width="360" height="220" as="geometry" />
        </mxCell>
        <mxCell id="ud1zYiJCpAEsLUOgTDbe-399" value="" style="group;" parent="ud1zYiJCpAEsLUOgTDbe-397" vertex="1" connectable="0">
          <mxGeometry x="31.5" y="50.106810035842045" width="294.5" height="139.7877060931903" as="geometry" />
        </mxCell>
        <mxCell id="ud1zYiJCpAEsLUOgTDbe-400" value="&lt;div&gt;get-all-articles&lt;/div&gt;" style="rounded=1;whiteSpace=wrap;html=1;fontSize=12;fillColor=#004C99;fontStyle=1;fontColor=#ffffff;" parent="ud1zYiJCpAEsLUOgTDbe-399" vertex="1">
          <mxGeometry y="100.0027598566312" width="90" height="39.784946236559136" as="geometry" />
        </mxCell>
        <mxCell id="ud1zYiJCpAEsLUOgTDbe-401" value="get-article-by-id" style="rounded=1;whiteSpace=wrap;html=1;fontSize=12;fillColor=#004C99;fontStyle=1;fontColor=#ffffff;" parent="ud1zYiJCpAEsLUOgTDbe-399" vertex="1">
          <mxGeometry x="195.5" y="100.00275985663097" width="99" height="39.784946236559136" as="geometry" />
        </mxCell>
        <mxCell id="ud1zYiJCpAEsLUOgTDbe-402" value="&lt;div&gt;get-all-articles-by-search&lt;/div&gt;" style="rounded=1;whiteSpace=wrap;html=1;fontSize=12;fillColor=#004C99;fontStyle=1;fontColor=#ffffff;" parent="ud1zYiJCpAEsLUOgTDbe-399" vertex="1">
          <mxGeometry x="66.5" y="50.1127598566311" width="159" height="39.784946236559136" as="geometry" />
        </mxCell>
        <mxCell id="ud1zYiJCpAEsLUOgTDbe-403" value="&lt;div&gt;update-article&lt;/div&gt;" style="rounded=1;whiteSpace=wrap;html=1;fontSize=12;fillColor=#004C99;fontStyle=1;fontColor=#ffffff;" parent="ud1zYiJCpAEsLUOgTDbe-399" vertex="1">
          <mxGeometry x="101" width="90" height="39.784946236559136" as="geometry" />
        </mxCell>
        <mxCell id="ud1zYiJCpAEsLUOgTDbe-404" value="&lt;div&gt;create-article&lt;/div&gt;" style="rounded=1;whiteSpace=wrap;html=1;fontSize=12;fillColor=#004C99;fontStyle=1;fontColor=#ffffff;" parent="ud1zYiJCpAEsLUOgTDbe-399" vertex="1">
          <mxGeometry width="90" height="39.784946236559136" as="geometry" />
        </mxCell>
        <mxCell id="ud1zYiJCpAEsLUOgTDbe-405" value="&lt;div&gt;delete-article&lt;/div&gt;" style="rounded=1;whiteSpace=wrap;html=1;fontSize=12;fillColor=#004C99;fontStyle=1;fontColor=#ffffff;" parent="ud1zYiJCpAEsLUOgTDbe-399" vertex="1">
          <mxGeometry x="200" width="90" height="39.784946236559136" as="geometry" />
        </mxCell>
        <mxCell id="ud1zYiJCpAEsLUOgTDbe-406" value="" style="group;flipV=1;fillColor=default;rounded=1;" parent="ud1zYiJCpAEsLUOgTDbe-390" vertex="1" connectable="0">
          <mxGeometry x="243.75" y="1165" width="1422" height="360" as="geometry" />
        </mxCell>
        <mxCell id="ud1zYiJCpAEsLUOgTDbe-407" value="Domain" style="rounded=1;whiteSpace=wrap;html=1;fontSize=18;fillColor=none;fontStyle=1;verticalAlign=top;container=1;" parent="ud1zYiJCpAEsLUOgTDbe-406" vertex="1">
          <mxGeometry width="1422" height="360" as="geometry">
            <mxRectangle width="100" height="40" as="alternateBounds" />
          </mxGeometry>
        </mxCell>
        <mxCell id="ud1zYiJCpAEsLUOgTDbe-408" value="" style="group" parent="ud1zYiJCpAEsLUOgTDbe-407" vertex="1" connectable="0">
          <mxGeometry x="131.00068965517244" y="70.00372759856623" width="360" height="220" as="geometry" />
        </mxCell>
        <mxCell id="ud1zYiJCpAEsLUOgTDbe-409" value="Entities" style="rounded=1;whiteSpace=wrap;html=1;fontSize=18;fillColor=#FF866E;fontStyle=1;verticalAlign=top;" parent="ud1zYiJCpAEsLUOgTDbe-408" vertex="1">
          <mxGeometry width="360" height="220" as="geometry" />
        </mxCell>
        <mxCell id="ud1zYiJCpAEsLUOgTDbe-410" value="article" style="rounded=1;whiteSpace=wrap;html=1;fontSize=12;fillColor=#FF3300;fontStyle=1;fontColor=#ffffff;" parent="ud1zYiJCpAEsLUOgTDbe-408" vertex="1">
          <mxGeometry x="134.99931034482762" y="90.10494623655912" width="90" height="39.784946236559136" as="geometry" />
        </mxCell>
        <mxCell id="ud1zYiJCpAEsLUOgTDbe-411" value="" style="group;" parent="ud1zYiJCpAEsLUOgTDbe-407" vertex="1" connectable="0">
          <mxGeometry x="531" y="70" width="360" height="220" as="geometry" />
        </mxCell>
        <mxCell id="ud1zYiJCpAEsLUOgTDbe-412" value="Repositories" style="rounded=1;whiteSpace=wrap;html=1;fontSize=18;fillColor=#FF866E;fontStyle=1;verticalAlign=top;horizontal=1;container=0;" parent="ud1zYiJCpAEsLUOgTDbe-411" vertex="1">
          <mxGeometry width="360" height="220" as="geometry" />
        </mxCell>
        <mxCell id="ud1zYiJCpAEsLUOgTDbe-413" value="articles" style="rounded=1;whiteSpace=wrap;html=1;fontSize=12;fillColor=#FF3300;fontStyle=1;fontColor=#ffffff;" parent="ud1zYiJCpAEsLUOgTDbe-411" vertex="1">
          <mxGeometry x="135" y="90.10681003584205" width="90" height="39.78" as="geometry" />
        </mxCell>
        <mxCell id="ud1zYiJCpAEsLUOgTDbe-414" value="" style="group" parent="ud1zYiJCpAEsLUOgTDbe-407" vertex="1" connectable="0">
          <mxGeometry x="931.0006896551724" y="70.00372759856623" width="360" height="220" as="geometry" />
        </mxCell>
        <mxCell id="ud1zYiJCpAEsLUOgTDbe-415" value="Value Objects" style="rounded=1;whiteSpace=wrap;html=1;fontSize=18;fillColor=#FF866E;fontStyle=1;verticalAlign=top;" parent="ud1zYiJCpAEsLUOgTDbe-414" vertex="1">
          <mxGeometry width="360" height="220" as="geometry" />
        </mxCell>
        <mxCell id="ud1zYiJCpAEsLUOgTDbe-416" value="content" style="rounded=1;whiteSpace=wrap;html=1;fontSize=12;fillColor=#FF3300;fontStyle=1;fontColor=#ffffff;" parent="ud1zYiJCpAEsLUOgTDbe-414" vertex="1">
          <mxGeometry x="84.99931034482762" y="49.994946236559116" width="90" height="39.784946236559136" as="geometry" />
        </mxCell>
        <mxCell id="ud1zYiJCpAEsLUOgTDbe-417" value="reading-time" style="rounded=1;whiteSpace=wrap;html=1;fontSize=12;fillColor=#FF3300;fontStyle=1;fontColor=#ffffff;" parent="ud1zYiJCpAEsLUOgTDbe-414" vertex="1">
          <mxGeometry x="184.99931034482756" y="49.99318996415761" width="90" height="39.784946236559136" as="geometry" />
        </mxCell>
        <mxCell id="ud1zYiJCpAEsLUOgTDbe-418" value="slug" style="rounded=1;whiteSpace=wrap;html=1;fontSize=12;fillColor=#FF3300;fontStyle=1;fontColor=#ffffff;" parent="ud1zYiJCpAEsLUOgTDbe-414" vertex="1">
          <mxGeometry x="84.99931034482756" y="99.88494623655909" width="90" height="39.784946236559136" as="geometry" />
        </mxCell>
        <mxCell id="ud1zYiJCpAEsLUOgTDbe-419" value="summary" style="rounded=1;whiteSpace=wrap;html=1;fontSize=12;fillColor=#FF3300;fontStyle=1;fontColor=#ffffff;" parent="ud1zYiJCpAEsLUOgTDbe-414" vertex="1">
          <mxGeometry x="184.99931034482756" y="99.88494623655909" width="90" height="39.784946236559136" as="geometry" />
        </mxCell>
        <mxCell id="ud1zYiJCpAEsLUOgTDbe-420" value="title" style="rounded=1;whiteSpace=wrap;html=1;fontSize=12;fillColor=#FF3300;fontStyle=1;fontColor=#ffffff;" parent="ud1zYiJCpAEsLUOgTDbe-414" vertex="1">
          <mxGeometry x="134.99931034482756" y="149.9949462365591" width="90" height="39.784946236559136" as="geometry" />
        </mxCell>
        <mxCell id="ud1zYiJCpAEsLUOgTDbe-421" style="edgeStyle=orthogonalEdgeStyle;rounded=0;orthogonalLoop=1;jettySize=auto;html=1;entryX=0.5;entryY=1;entryDx=0;entryDy=0;strokeColor=#A50040;strokeWidth=4;" parent="ud1zYiJCpAEsLUOgTDbe-407" source="ud1zYiJCpAEsLUOgTDbe-415" target="ud1zYiJCpAEsLUOgTDbe-409" edge="1">
          <mxGeometry relative="1" as="geometry">
            <Array as="points">
              <mxPoint x="1111" y="325" />
              <mxPoint x="311" y="325" />
            </Array>
          </mxGeometry>
        </mxCell>
        <mxCell id="ud1zYiJCpAEsLUOgTDbe-422" style="edgeStyle=orthogonalEdgeStyle;rounded=0;orthogonalLoop=1;jettySize=auto;html=1;entryX=0;entryY=0.5;entryDx=0;entryDy=0;strokeWidth=4;strokeColor=#A50040;" parent="ud1zYiJCpAEsLUOgTDbe-407" source="ud1zYiJCpAEsLUOgTDbe-409" target="ud1zYiJCpAEsLUOgTDbe-412" edge="1">
          <mxGeometry relative="1" as="geometry" />
        </mxCell>
        <mxCell id="ud1zYiJCpAEsLUOgTDbe-423" value="&lt;div&gt;Infrastructure&lt;/div&gt;&lt;div&gt;&lt;font color=&quot;#3b3b3b&quot; style=&quot;font-size: 16px;&quot;&gt;( articles module )&lt;/font&gt;&lt;br&gt;&lt;/div&gt;" style="rounded=1;whiteSpace=wrap;html=1;fontSize=18;fillColor=default;fontStyle=1;verticalAlign=top;container=1;" parent="ud1zYiJCpAEsLUOgTDbe-390" vertex="1">
          <mxGeometry x="70.75" y="565.5" width="1830" height="489" as="geometry" />
        </mxCell>
        <mxCell id="ud1zYiJCpAEsLUOgTDbe-424" value="" style="group" parent="ud1zYiJCpAEsLUOgTDbe-423" vertex="1" connectable="0">
          <mxGeometry x="61.5" y="138.9990754859657" width="808.5" height="280" as="geometry" />
        </mxCell>
        <mxCell id="ud1zYiJCpAEsLUOgTDbe-425" value="Database" style="rounded=1;whiteSpace=wrap;html=1;fontSize=18;fillColor=#EAF0FC;fontStyle=1;verticalAlign=top;" parent="ud1zYiJCpAEsLUOgTDbe-424" vertex="1">
          <mxGeometry y="-10" width="808.5" height="290" as="geometry" />
        </mxCell>
        <mxCell id="ud1zYiJCpAEsLUOgTDbe-426" value="" style="group" parent="ud1zYiJCpAEsLUOgTDbe-424" vertex="1" connectable="0">
          <mxGeometry x="49.25068965517221" y="65.0006884678979" width="220" height="139.9986230642042" as="geometry" />
        </mxCell>
        <mxCell id="ud1zYiJCpAEsLUOgTDbe-427" value="In memory" style="rounded=1;whiteSpace=wrap;html=1;fontSize=12;fillColor=#787C82;fontStyle=1;fontColor=#ffffff;verticalAlign=top;" parent="ud1zYiJCpAEsLUOgTDbe-426" vertex="1">
          <mxGeometry width="220" height="139.9986230642042" as="geometry" />
        </mxCell>
        <mxCell id="ud1zYiJCpAEsLUOgTDbe-428" value="Repositories" style="rounded=1;whiteSpace=wrap;html=1;fontSize=12;fillColor=#3E3F42;fontStyle=1;fontColor=#ffffff;verticalAlign=top;" parent="ud1zYiJCpAEsLUOgTDbe-426" vertex="1">
          <mxGeometry x="10" y="28.999714777585154" width="200" height="100.99900663917589" as="geometry" />
        </mxCell>
        <mxCell id="ud1zYiJCpAEsLUOgTDbe-429" value="articles-in-memory" style="rounded=1;whiteSpace=wrap;html=1;fontSize=12;fillColor=#151517;fontStyle=1;fontColor=#ffffff;" parent="ud1zYiJCpAEsLUOgTDbe-426" vertex="1">
          <mxGeometry x="45" y="68.99932136735778" width="130" height="39.779608753528876" as="geometry" />
        </mxCell>
        <mxCell id="ud1zYiJCpAEsLUOgTDbe-430" value="" style="group" parent="ud1zYiJCpAEsLUOgTDbe-424" vertex="1" connectable="0">
          <mxGeometry x="299.2506896551722" y="65.00308827028486" width="460" height="139.9986230642042" as="geometry" />
        </mxCell>
        <mxCell id="ud1zYiJCpAEsLUOgTDbe-431" value="Prisma" style="rounded=1;whiteSpace=wrap;html=1;fontSize=12;fillColor=#787C82;fontStyle=1;fontColor=#ffffff;verticalAlign=top;" parent="ud1zYiJCpAEsLUOgTDbe-430" vertex="1">
          <mxGeometry width="460" height="139.9986230642042" as="geometry" />
        </mxCell>
        <mxCell id="ud1zYiJCpAEsLUOgTDbe-432" value="" style="group" parent="ud1zYiJCpAEsLUOgTDbe-430" vertex="1" connectable="0">
          <mxGeometry x="10.75" y="28.999714777585154" width="200" height="100.99900663917589" as="geometry" />
        </mxCell>
        <mxCell id="ud1zYiJCpAEsLUOgTDbe-433" value="Mappers" style="rounded=1;whiteSpace=wrap;html=1;fontSize=12;fillColor=#3E3F42;fontStyle=1;fontColor=#ffffff;verticalAlign=top;" parent="ud1zYiJCpAEsLUOgTDbe-432" vertex="1">
          <mxGeometry width="200" height="100.99900663917589" as="geometry" />
        </mxCell>
        <mxCell id="ud1zYiJCpAEsLUOgTDbe-434" value="article-prisma" style="rounded=1;whiteSpace=wrap;html=1;fontSize=12;fillColor=#151517;fontStyle=1;fontColor=#ffffff;" parent="ud1zYiJCpAEsLUOgTDbe-432" vertex="1">
          <mxGeometry x="35" y="39.999606589772625" width="130" height="39.779608753528876" as="geometry" />
        </mxCell>
        <mxCell id="ud1zYiJCpAEsLUOgTDbe-435" value="" style="group" parent="ud1zYiJCpAEsLUOgTDbe-430" vertex="1" connectable="0">
          <mxGeometry x="250.75" y="28.999714777585154" width="200" height="100.99900663917589" as="geometry" />
        </mxCell>
        <mxCell id="ud1zYiJCpAEsLUOgTDbe-436" value="Repositories" style="rounded=1;whiteSpace=wrap;html=1;fontSize=12;fillColor=#3E3F42;fontStyle=1;fontColor=#ffffff;verticalAlign=top;" parent="ud1zYiJCpAEsLUOgTDbe-435" vertex="1">
          <mxGeometry width="200" height="100.99900663917589" as="geometry" />
        </mxCell>
        <mxCell id="ud1zYiJCpAEsLUOgTDbe-437" value="articles-prisma" style="rounded=1;whiteSpace=wrap;html=1;fontSize=12;fillColor=#151517;fontStyle=1;fontColor=#ffffff;" parent="ud1zYiJCpAEsLUOgTDbe-435" vertex="1">
          <mxGeometry x="35" y="39.999606589772625" width="130" height="39.779608753528876" as="geometry" />
        </mxCell>
        <mxCell id="ud1zYiJCpAEsLUOgTDbe-438" style="edgeStyle=orthogonalEdgeStyle;rounded=0;orthogonalLoop=1;jettySize=auto;html=1;exitX=1;exitY=0.5;exitDx=0;exitDy=0;entryX=0;entryY=0.5;entryDx=0;entryDy=0;strokeWidth=4;strokeColor=#A50040;" parent="ud1zYiJCpAEsLUOgTDbe-430" source="ud1zYiJCpAEsLUOgTDbe-433" target="ud1zYiJCpAEsLUOgTDbe-436" edge="1">
          <mxGeometry relative="1" as="geometry" />
        </mxCell>
        <mxCell id="ud1zYiJCpAEsLUOgTDbe-439" value="" style="group" parent="ud1zYiJCpAEsLUOgTDbe-423" vertex="1" connectable="0">
          <mxGeometry x="923.5" y="148.9990754859657" width="808.5" height="270" as="geometry" />
        </mxCell>
        <mxCell id="ud1zYiJCpAEsLUOgTDbe-440" value="&lt;div&gt;Http&lt;/div&gt;" style="rounded=1;whiteSpace=wrap;html=1;fontSize=18;fillColor=#FFD89E;fontStyle=1;verticalAlign=top;" parent="ud1zYiJCpAEsLUOgTDbe-439" vertex="1">
          <mxGeometry y="-20" width="808.5" height="290" as="geometry" />
        </mxCell>
        <mxCell id="ud1zYiJCpAEsLUOgTDbe-441" value="" style="group" parent="ud1zYiJCpAEsLUOgTDbe-439" vertex="1" connectable="0">
          <mxGeometry x="49.25068965517221" y="50.00308827028486" width="220" height="170" as="geometry" />
        </mxCell>
        <mxCell id="ud1zYiJCpAEsLUOgTDbe-442" value="" style="group" parent="ud1zYiJCpAEsLUOgTDbe-441" vertex="1" connectable="0">
          <mxGeometry width="220" height="170" as="geometry" />
        </mxCell>
        <mxCell id="ud1zYiJCpAEsLUOgTDbe-443" value="Mappers" style="rounded=1;whiteSpace=wrap;html=1;fontSize=12;fillColor=#FFA45E;fontStyle=1;fontColor=#ffffff;verticalAlign=top;" parent="ud1zYiJCpAEsLUOgTDbe-442" vertex="1">
          <mxGeometry width="220" height="170" as="geometry" />
        </mxCell>
        <mxCell id="ud1zYiJCpAEsLUOgTDbe-444" value="&lt;div&gt;article-http&lt;/div&gt;" style="rounded=1;whiteSpace=wrap;html=1;fontSize=12;fillColor=#FF8A05;fontStyle=1;fontColor=#ffffff;verticalAlign=middle;" parent="ud1zYiJCpAEsLUOgTDbe-442" vertex="1">
          <mxGeometry x="61.25" y="65" width="97.5" height="40" as="geometry" />
        </mxCell>
        <mxCell id="ud1zYiJCpAEsLUOgTDbe-445" value="" style="group" parent="ud1zYiJCpAEsLUOgTDbe-439" vertex="1" connectable="0">
          <mxGeometry x="299.2506896551722" y="50.00308827028486" width="460" height="170" as="geometry" />
        </mxCell>
        <mxCell id="ud1zYiJCpAEsLUOgTDbe-446" value="" style="group" parent="ud1zYiJCpAEsLUOgTDbe-445" vertex="1" connectable="0">
          <mxGeometry width="460" height="170" as="geometry" />
        </mxCell>
        <mxCell id="ud1zYiJCpAEsLUOgTDbe-447" value="Controllers" style="rounded=1;whiteSpace=wrap;html=1;fontSize=12;fillColor=#FFA45E;fontStyle=1;fontColor=#ffffff;verticalAlign=top;" parent="ud1zYiJCpAEsLUOgTDbe-446" vertex="1">
          <mxGeometry width="460" height="170" as="geometry" />
        </mxCell>
        <mxCell id="ud1zYiJCpAEsLUOgTDbe-448" value="create-article" style="rounded=1;whiteSpace=wrap;html=1;fontSize=12;fillColor=#FF8A05;fontStyle=1;fontColor=#ffffff;" parent="ud1zYiJCpAEsLUOgTDbe-446" vertex="1">
          <mxGeometry x="84.99931034482779" y="40.104646279591535" width="90" height="39.78" as="geometry" />
        </mxCell>
        <mxCell id="ud1zYiJCpAEsLUOgTDbe-449" value="update-article" style="rounded=1;whiteSpace=wrap;html=1;fontSize=12;fillColor=#FF8A05;fontStyle=1;fontColor=#ffffff;" parent="ud1zYiJCpAEsLUOgTDbe-446" vertex="1">
          <mxGeometry x="184.9993103448278" y="40.104646279591506" width="90" height="39.78" as="geometry" />
        </mxCell>
        <mxCell id="ud1zYiJCpAEsLUOgTDbe-450" value="delete-article" style="rounded=1;whiteSpace=wrap;html=1;fontSize=12;fillColor=#FF8A05;fontStyle=1;fontColor=#ffffff;" parent="ud1zYiJCpAEsLUOgTDbe-446" vertex="1">
          <mxGeometry x="284.9993103448278" y="40.104646279591506" width="90" height="39.78" as="geometry" />
        </mxCell>
        <mxCell id="ud1zYiJCpAEsLUOgTDbe-451" value="get-all-articles" style="rounded=1;whiteSpace=wrap;html=1;fontSize=12;fillColor=#FF8A05;fontStyle=1;fontColor=#ffffff;" parent="ud1zYiJCpAEsLUOgTDbe-446" vertex="1">
          <mxGeometry x="27.869999999999997" y="90.11" width="96.75" height="39.78" as="geometry" />
        </mxCell>
        <mxCell id="ud1zYiJCpAEsLUOgTDbe-452" value="get-all-articles-by-search" style="rounded=1;whiteSpace=wrap;html=1;fontSize=12;fillColor=#FF8A05;fontStyle=1;fontColor=#ffffff;" parent="ud1zYiJCpAEsLUOgTDbe-446" vertex="1">
          <mxGeometry x="137.87" y="90.11" width="164.25" height="39.78" as="geometry" />
        </mxCell>
        <mxCell id="ud1zYiJCpAEsLUOgTDbe-453" value="get-article-by-id" style="rounded=1;whiteSpace=wrap;html=1;fontSize=12;fillColor=#FF8A05;fontStyle=1;fontColor=#ffffff;" parent="ud1zYiJCpAEsLUOgTDbe-446" vertex="1">
          <mxGeometry x="317.87" y="90.11" width="114.25" height="39.78" as="geometry" />
        </mxCell>
        <mxCell id="ud1zYiJCpAEsLUOgTDbe-454" style="edgeStyle=orthogonalEdgeStyle;rounded=0;orthogonalLoop=1;jettySize=auto;html=1;entryX=0;entryY=0.5;entryDx=0;entryDy=0;strokeWidth=4;strokeColor=#A50040;" parent="ud1zYiJCpAEsLUOgTDbe-439" source="ud1zYiJCpAEsLUOgTDbe-443" target="ud1zYiJCpAEsLUOgTDbe-447" edge="1">
          <mxGeometry relative="1" as="geometry" />
        </mxCell>
        <mxCell id="ud1zYiJCpAEsLUOgTDbe-455" style="edgeStyle=orthogonalEdgeStyle;rounded=0;orthogonalLoop=1;jettySize=auto;html=1;entryX=0.5;entryY=0;entryDx=0;entryDy=0;strokeColor=#A50040;strokeWidth=4;" parent="ud1zYiJCpAEsLUOgTDbe-390" source="ud1zYiJCpAEsLUOgTDbe-398" target="ud1zYiJCpAEsLUOgTDbe-447" edge="1">
          <mxGeometry relative="1" as="geometry">
            <Array as="points">
              <mxPoint x="1524" y="305" />
              <mxPoint x="1524" y="660" />
            </Array>
          </mxGeometry>
        </mxCell>
        <mxCell id="ud1zYiJCpAEsLUOgTDbe-456" style="edgeStyle=orthogonalEdgeStyle;rounded=0;orthogonalLoop=1;jettySize=auto;html=1;entryX=0.5;entryY=0;entryDx=0;entryDy=0;strokeColor=#A50040;strokeWidth=4;" parent="ud1zYiJCpAEsLUOgTDbe-390" source="ud1zYiJCpAEsLUOgTDbe-394" target="ud1zYiJCpAEsLUOgTDbe-447" edge="1">
          <mxGeometry relative="1" as="geometry">
            <Array as="points">
              <mxPoint x="786" y="170" />
              <mxPoint x="1524" y="170" />
              <mxPoint x="1524" y="764" />
            </Array>
          </mxGeometry>
        </mxCell>
        <mxCell id="ud1zYiJCpAEsLUOgTDbe-457" style="edgeStyle=orthogonalEdgeStyle;rounded=0;orthogonalLoop=1;jettySize=auto;html=1;strokeColor=#A50040;strokeWidth=4;entryX=0.518;entryY=1.009;entryDx=0;entryDy=0;entryPerimeter=0;" parent="ud1zYiJCpAEsLUOgTDbe-390" source="ud1zYiJCpAEsLUOgTDbe-409" target="ud1zYiJCpAEsLUOgTDbe-447" edge="1">
          <mxGeometry relative="1" as="geometry">
            <mxPoint x="1531.5" y="950" as="targetPoint" />
            <Array as="points">
              <mxPoint x="555" y="1110" />
              <mxPoint x="1532" y="1110" />
            </Array>
          </mxGeometry>
        </mxCell>
        <mxCell id="ud1zYiJCpAEsLUOgTDbe-458" style="edgeStyle=orthogonalEdgeStyle;rounded=0;orthogonalLoop=1;jettySize=auto;html=1;exitX=0.5;exitY=0;exitDx=0;exitDy=0;entryX=0.5;entryY=1;entryDx=0;entryDy=0;strokeColor=#A50040;strokeWidth=4;" parent="ud1zYiJCpAEsLUOgTDbe-390" source="ud1zYiJCpAEsLUOgTDbe-409" target="ud1zYiJCpAEsLUOgTDbe-428" edge="1">
          <mxGeometry relative="1" as="geometry">
            <Array as="points">
              <mxPoint x="555" y="1110" />
              <mxPoint x="291" y="1110" />
            </Array>
          </mxGeometry>
        </mxCell>
        <mxCell id="ud1zYiJCpAEsLUOgTDbe-459" style="edgeStyle=orthogonalEdgeStyle;rounded=0;orthogonalLoop=1;jettySize=auto;html=1;entryX=0.5;entryY=1;entryDx=0;entryDy=0;strokeWidth=4;strokeColor=#A50040;" parent="ud1zYiJCpAEsLUOgTDbe-390" source="ud1zYiJCpAEsLUOgTDbe-409" target="ud1zYiJCpAEsLUOgTDbe-443" edge="1">
          <mxGeometry relative="1" as="geometry">
            <Array as="points">
              <mxPoint x="555" y="1110" />
              <mxPoint x="1153" y="1110" />
            </Array>
          </mxGeometry>
        </mxCell>
        <mxCell id="ud1zYiJCpAEsLUOgTDbe-460" style="edgeStyle=orthogonalEdgeStyle;rounded=0;orthogonalLoop=1;jettySize=auto;html=1;entryX=0.558;entryY=1.004;entryDx=0;entryDy=0;entryPerimeter=0;strokeColor=#A50040;strokeWidth=4;" parent="ud1zYiJCpAEsLUOgTDbe-390" source="ud1zYiJCpAEsLUOgTDbe-409" target="ud1zYiJCpAEsLUOgTDbe-433" edge="1">
          <mxGeometry relative="1" as="geometry" />
        </mxCell>
        <mxCell id="ud1zYiJCpAEsLUOgTDbe-461" style="edgeStyle=orthogonalEdgeStyle;rounded=0;orthogonalLoop=1;jettySize=auto;html=1;entryX=0.536;entryY=0.965;entryDx=0;entryDy=0;entryPerimeter=0;strokeWidth=4;strokeColor=#A50040;" parent="ud1zYiJCpAEsLUOgTDbe-390" source="ud1zYiJCpAEsLUOgTDbe-409" target="ud1zYiJCpAEsLUOgTDbe-436" edge="1">
          <mxGeometry relative="1" as="geometry">
            <Array as="points">
              <mxPoint x="555" y="1110" />
              <mxPoint x="789" y="1110" />
            </Array>
          </mxGeometry>
        </mxCell>
        <mxCell id="ud1zYiJCpAEsLUOgTDbe-462" value="&lt;div&gt;AUTH&lt;/div&gt;" style="swimlane;horizontal=1;whiteSpace=wrap;html=1;fontSize=20;fontStyle=1;labelBackgroundColor=none;labelBorderColor=none;startSize=40;fillColor=#57FFE9;swimlaneFillColor=#F5FAFF;" parent="ud1zYiJCpAEsLUOgTDbe-389" vertex="1">
          <mxGeometry x="2210" y="90" width="2890" height="1620" as="geometry">
            <mxRectangle x="158.5" y="90" width="40" height="120" as="alternateBounds" />
          </mxGeometry>
        </mxCell>
        <mxCell id="ud1zYiJCpAEsLUOgTDbe-463" value="" style="group;flipV=1;fillColor=default;rounded=1;glass=0;shadow=0;" parent="ud1zYiJCpAEsLUOgTDbe-462" vertex="1" connectable="0">
          <mxGeometry x="530.75" y="120" width="1828.5" height="360" as="geometry" />
        </mxCell>
        <mxCell id="ud1zYiJCpAEsLUOgTDbe-464" value="Application" style="rounded=1;whiteSpace=wrap;html=1;fontSize=18;fillColor=none;fontStyle=1;verticalAlign=top;container=1;" parent="ud1zYiJCpAEsLUOgTDbe-463" vertex="1">
          <mxGeometry width="1828.5" height="360" as="geometry" />
        </mxCell>
        <mxCell id="ud1zYiJCpAEsLUOgTDbe-465" value="" style="group" parent="ud1zYiJCpAEsLUOgTDbe-464" vertex="1" connectable="0">
          <mxGeometry x="908.5006896551722" y="85.00372759856587" width="360" height="220" as="geometry" />
        </mxCell>
        <mxCell id="ud1zYiJCpAEsLUOgTDbe-466" value="DTOs" style="rounded=1;whiteSpace=wrap;html=1;fontSize=18;fillColor=#63D6FF;fontStyle=1;verticalAlign=top;" parent="ud1zYiJCpAEsLUOgTDbe-465" vertex="1">
          <mxGeometry width="360" height="220" as="geometry" />
        </mxCell>
        <mxCell id="ud1zYiJCpAEsLUOgTDbe-467" value="&lt;div&gt;create-user&lt;/div&gt;" style="rounded=1;whiteSpace=wrap;html=1;fontSize=12;fillColor=#00BBFF;fontStyle=1;fontColor=#ffffff;" parent="ud1zYiJCpAEsLUOgTDbe-465" vertex="1">
          <mxGeometry x="84.99931034482762" y="66.16494623655912" width="90" height="39.784946236559136" as="geometry" />
        </mxCell>
        <mxCell id="ud1zYiJCpAEsLUOgTDbe-468" value="&lt;div&gt;update-user&lt;/div&gt;" style="rounded=1;whiteSpace=wrap;html=1;fontSize=12;fillColor=#00BBFF;fontStyle=1;fontColor=#ffffff;" parent="ud1zYiJCpAEsLUOgTDbe-465" vertex="1">
          <mxGeometry x="184.99931034482756" y="66.16318996415761" width="90" height="39.784946236559136" as="geometry" />
        </mxCell>
        <mxCell id="ud1zYiJCpAEsLUOgTDbe-469" value="signin-user" style="rounded=1;whiteSpace=wrap;html=1;fontSize=12;fillColor=#00BBFF;fontStyle=1;fontColor=#ffffff;" parent="ud1zYiJCpAEsLUOgTDbe-465" vertex="1">
          <mxGeometry x="134.9993103448278" y="114.05494623655915" width="90" height="39.784946236559136" as="geometry" />
        </mxCell>
        <mxCell id="ud1zYiJCpAEsLUOgTDbe-470" value="" style="group;" parent="ud1zYiJCpAEsLUOgTDbe-464" vertex="1" connectable="0">
          <mxGeometry x="1309.25" y="85" width="360" height="220" as="geometry" />
        </mxCell>
        <mxCell id="ud1zYiJCpAEsLUOgTDbe-471" value="Usecases" style="rounded=1;whiteSpace=wrap;html=1;fontSize=18;fillColor=#66B2FF;fontStyle=1;verticalAlign=top;horizontal=1;container=0;" parent="ud1zYiJCpAEsLUOgTDbe-470" vertex="1">
          <mxGeometry width="360" height="220" as="geometry" />
        </mxCell>
        <mxCell id="ud1zYiJCpAEsLUOgTDbe-472" value="" style="group;" parent="ud1zYiJCpAEsLUOgTDbe-470" vertex="1" connectable="0">
          <mxGeometry x="31.5" y="50.106810035842045" width="294.5" height="139.7877060931903" as="geometry" />
        </mxCell>
        <mxCell id="ud1zYiJCpAEsLUOgTDbe-473" value="&lt;div&gt;get-all-users&lt;/div&gt;" style="rounded=1;whiteSpace=wrap;html=1;fontSize=12;fillColor=#004C99;fontStyle=1;fontColor=#ffffff;" parent="ud1zYiJCpAEsLUOgTDbe-472" vertex="1">
          <mxGeometry y="100.0027598566312" width="90" height="39.784946236559136" as="geometry" />
        </mxCell>
        <mxCell id="ud1zYiJCpAEsLUOgTDbe-474" value="get-user-by-id" style="rounded=1;whiteSpace=wrap;html=1;fontSize=12;fillColor=#004C99;fontStyle=1;fontColor=#ffffff;" parent="ud1zYiJCpAEsLUOgTDbe-472" vertex="1">
          <mxGeometry x="195.5" y="100.00275985663097" width="99" height="39.784946236559136" as="geometry" />
        </mxCell>
        <mxCell id="ud1zYiJCpAEsLUOgTDbe-475" value="signin-user" style="rounded=1;whiteSpace=wrap;html=1;fontSize=12;fillColor=#004C99;fontStyle=1;fontColor=#ffffff;" parent="ud1zYiJCpAEsLUOgTDbe-472" vertex="1">
          <mxGeometry x="66.5" y="50.1127598566311" width="159" height="39.784946236559136" as="geometry" />
        </mxCell>
        <mxCell id="ud1zYiJCpAEsLUOgTDbe-476" value="&lt;div&gt;update-user&lt;/div&gt;" style="rounded=1;whiteSpace=wrap;html=1;fontSize=12;fillColor=#004C99;fontStyle=1;fontColor=#ffffff;" parent="ud1zYiJCpAEsLUOgTDbe-472" vertex="1">
          <mxGeometry x="101" width="90" height="39.784946236559136" as="geometry" />
        </mxCell>
        <mxCell id="ud1zYiJCpAEsLUOgTDbe-477" value="&lt;div&gt;create-user&lt;/div&gt;" style="rounded=1;whiteSpace=wrap;html=1;fontSize=12;fillColor=#004C99;fontStyle=1;fontColor=#ffffff;" parent="ud1zYiJCpAEsLUOgTDbe-472" vertex="1">
          <mxGeometry width="90" height="39.784946236559136" as="geometry" />
        </mxCell>
        <mxCell id="ud1zYiJCpAEsLUOgTDbe-478" value="&lt;div&gt;delete-user&lt;/div&gt;" style="rounded=1;whiteSpace=wrap;html=1;fontSize=12;fillColor=#004C99;fontStyle=1;fontColor=#ffffff;" parent="ud1zYiJCpAEsLUOgTDbe-472" vertex="1">
          <mxGeometry x="200" width="90" height="39.784946236559136" as="geometry" />
        </mxCell>
        <mxCell id="ud1zYiJCpAEsLUOgTDbe-479" value="" style="group" parent="ud1zYiJCpAEsLUOgTDbe-464" vertex="1" connectable="0">
          <mxGeometry x="518.5006896551722" y="85.00372759856577" width="360" height="220" as="geometry" />
        </mxCell>
        <mxCell id="ud1zYiJCpAEsLUOgTDbe-480" value="Decorators" style="rounded=1;whiteSpace=wrap;html=1;fontSize=18;fillColor=#63D6FF;fontStyle=1;verticalAlign=top;" parent="ud1zYiJCpAEsLUOgTDbe-479" vertex="1">
          <mxGeometry width="360" height="220" as="geometry" />
        </mxCell>
        <mxCell id="ud1zYiJCpAEsLUOgTDbe-481" value="current-user" style="rounded=1;whiteSpace=wrap;html=1;fontSize=12;fillColor=#00BBFF;fontStyle=1;fontColor=#ffffff;" parent="ud1zYiJCpAEsLUOgTDbe-479" vertex="1">
          <mxGeometry x="134.9993103448278" y="90.10494623655914" width="90" height="39.784946236559136" as="geometry" />
        </mxCell>
        <mxCell id="ud1zYiJCpAEsLUOgTDbe-482" value="" style="group" parent="ud1zYiJCpAEsLUOgTDbe-464" vertex="1" connectable="0">
          <mxGeometry x="128.5006896551722" y="85.00372759856577" width="360" height="220" as="geometry" />
        </mxCell>
        <mxCell id="ud1zYiJCpAEsLUOgTDbe-483" value="Interfaces" style="rounded=1;whiteSpace=wrap;html=1;fontSize=18;fillColor=#63D6FF;fontStyle=1;verticalAlign=top;" parent="ud1zYiJCpAEsLUOgTDbe-482" vertex="1">
          <mxGeometry width="360" height="220" as="geometry" />
        </mxCell>
        <mxCell id="ud1zYiJCpAEsLUOgTDbe-484" value="hash" style="rounded=1;whiteSpace=wrap;html=1;fontSize=12;fillColor=#00BBFF;fontStyle=1;fontColor=#ffffff;" parent="ud1zYiJCpAEsLUOgTDbe-482" vertex="1">
          <mxGeometry x="134.9993103448278" y="90.10494623655914" width="90" height="39.784946236559136" as="geometry" />
        </mxCell>
        <mxCell id="ud1zYiJCpAEsLUOgTDbe-485" value="" style="group;flipV=1;fillColor=default;rounded=1;" parent="ud1zYiJCpAEsLUOgTDbe-462" vertex="1" connectable="0">
          <mxGeometry x="734" y="1165" width="1422" height="360" as="geometry" />
        </mxCell>
        <mxCell id="ud1zYiJCpAEsLUOgTDbe-486" value="Domain" style="rounded=1;whiteSpace=wrap;html=1;fontSize=18;fillColor=none;fontStyle=1;verticalAlign=top;container=1;" parent="ud1zYiJCpAEsLUOgTDbe-485" vertex="1">
          <mxGeometry width="1422" height="360" as="geometry">
            <mxRectangle width="100" height="40" as="alternateBounds" />
          </mxGeometry>
        </mxCell>
        <mxCell id="ud1zYiJCpAEsLUOgTDbe-487" value="" style="group" parent="ud1zYiJCpAEsLUOgTDbe-486" vertex="1" connectable="0">
          <mxGeometry x="131.00068965517244" y="70.00372759856623" width="360" height="220" as="geometry" />
        </mxCell>
        <mxCell id="ud1zYiJCpAEsLUOgTDbe-488" value="Entities" style="rounded=1;whiteSpace=wrap;html=1;fontSize=18;fillColor=#FF866E;fontStyle=1;verticalAlign=top;" parent="ud1zYiJCpAEsLUOgTDbe-487" vertex="1">
          <mxGeometry width="360" height="220" as="geometry" />
        </mxCell>
        <mxCell id="ud1zYiJCpAEsLUOgTDbe-489" value="user" style="rounded=1;whiteSpace=wrap;html=1;fontSize=12;fillColor=#FF3300;fontStyle=1;fontColor=#ffffff;" parent="ud1zYiJCpAEsLUOgTDbe-487" vertex="1">
          <mxGeometry x="134.99931034482762" y="90.10494623655912" width="90" height="39.784946236559136" as="geometry" />
        </mxCell>
        <mxCell id="ud1zYiJCpAEsLUOgTDbe-490" value="" style="group;" parent="ud1zYiJCpAEsLUOgTDbe-486" vertex="1" connectable="0">
          <mxGeometry x="531" y="70" width="360" height="220" as="geometry" />
        </mxCell>
        <mxCell id="ud1zYiJCpAEsLUOgTDbe-491" value="Repositories" style="rounded=1;whiteSpace=wrap;html=1;fontSize=18;fillColor=#FF866E;fontStyle=1;verticalAlign=top;horizontal=1;container=0;" parent="ud1zYiJCpAEsLUOgTDbe-490" vertex="1">
          <mxGeometry width="360" height="220" as="geometry" />
        </mxCell>
        <mxCell id="ud1zYiJCpAEsLUOgTDbe-492" value="users" style="rounded=1;whiteSpace=wrap;html=1;fontSize=12;fillColor=#FF3300;fontStyle=1;fontColor=#ffffff;" parent="ud1zYiJCpAEsLUOgTDbe-490" vertex="1">
          <mxGeometry x="135" y="90.10681003584205" width="90" height="39.78" as="geometry" />
        </mxCell>
        <mxCell id="ud1zYiJCpAEsLUOgTDbe-493" value="" style="group" parent="ud1zYiJCpAEsLUOgTDbe-486" vertex="1" connectable="0">
          <mxGeometry x="931.0006896551724" y="70.00372759856623" width="360" height="220" as="geometry" />
        </mxCell>
        <mxCell id="ud1zYiJCpAEsLUOgTDbe-494" value="Value Objects" style="rounded=1;whiteSpace=wrap;html=1;fontSize=18;fillColor=#FF866E;fontStyle=1;verticalAlign=top;" parent="ud1zYiJCpAEsLUOgTDbe-493" vertex="1">
          <mxGeometry width="360" height="220" as="geometry" />
        </mxCell>
        <mxCell id="ud1zYiJCpAEsLUOgTDbe-495" value="email" style="rounded=1;whiteSpace=wrap;html=1;fontSize=12;fillColor=#FF3300;fontStyle=1;fontColor=#ffffff;" parent="ud1zYiJCpAEsLUOgTDbe-493" vertex="1">
          <mxGeometry x="84.99931034482762" y="65.16494623655912" width="90" height="39.784946236559136" as="geometry" />
        </mxCell>
        <mxCell id="ud1zYiJCpAEsLUOgTDbe-496" value="username" style="rounded=1;whiteSpace=wrap;html=1;fontSize=12;fillColor=#FF3300;fontStyle=1;fontColor=#ffffff;" parent="ud1zYiJCpAEsLUOgTDbe-493" vertex="1">
          <mxGeometry x="184.99931034482756" y="65.16318996415761" width="90" height="39.784946236559136" as="geometry" />
        </mxCell>
        <mxCell id="ud1zYiJCpAEsLUOgTDbe-497" value="password" style="rounded=1;whiteSpace=wrap;html=1;fontSize=12;fillColor=#FF3300;fontStyle=1;fontColor=#ffffff;" parent="ud1zYiJCpAEsLUOgTDbe-493" vertex="1">
          <mxGeometry x="134.99931034482756" y="115.05494623655909" width="90" height="39.784946236559136" as="geometry" />
        </mxCell>
        <mxCell id="ud1zYiJCpAEsLUOgTDbe-498" style="edgeStyle=orthogonalEdgeStyle;rounded=0;orthogonalLoop=1;jettySize=auto;html=1;entryX=0.5;entryY=1;entryDx=0;entryDy=0;strokeColor=#A50040;strokeWidth=4;" parent="ud1zYiJCpAEsLUOgTDbe-486" source="ud1zYiJCpAEsLUOgTDbe-494" target="ud1zYiJCpAEsLUOgTDbe-488" edge="1">
          <mxGeometry relative="1" as="geometry">
            <Array as="points">
              <mxPoint x="1111" y="325" />
              <mxPoint x="311" y="325" />
            </Array>
          </mxGeometry>
        </mxCell>
        <mxCell id="ud1zYiJCpAEsLUOgTDbe-499" style="edgeStyle=orthogonalEdgeStyle;rounded=0;orthogonalLoop=1;jettySize=auto;html=1;entryX=0;entryY=0.5;entryDx=0;entryDy=0;strokeWidth=4;strokeColor=#A50040;" parent="ud1zYiJCpAEsLUOgTDbe-486" source="ud1zYiJCpAEsLUOgTDbe-488" target="ud1zYiJCpAEsLUOgTDbe-491" edge="1">
          <mxGeometry relative="1" as="geometry" />
        </mxCell>
        <mxCell id="ud1zYiJCpAEsLUOgTDbe-500" value="&lt;div&gt;Infrastructure&lt;/div&gt;&lt;div&gt;&lt;font color=&quot;#3b3b3b&quot; style=&quot;font-size: 16px;&quot;&gt;( auth module )&lt;/font&gt;&lt;br&gt;&lt;/div&gt;" style="rounded=1;whiteSpace=wrap;html=1;fontSize=18;fillColor=default;fontStyle=1;verticalAlign=top;container=1;" parent="ud1zYiJCpAEsLUOgTDbe-462" vertex="1">
          <mxGeometry x="70.75" y="565.5" width="2739.25" height="489" as="geometry" />
        </mxCell>
        <mxCell id="ud1zYiJCpAEsLUOgTDbe-501" value="" style="group" parent="ud1zYiJCpAEsLUOgTDbe-500" vertex="1" connectable="0">
          <mxGeometry x="129.25" y="109.4990754859657" width="808.5" height="280" as="geometry" />
        </mxCell>
        <mxCell id="ud1zYiJCpAEsLUOgTDbe-502" value="Database" style="rounded=1;whiteSpace=wrap;html=1;fontSize=18;fillColor=#EAF0FC;fontStyle=1;verticalAlign=top;" parent="ud1zYiJCpAEsLUOgTDbe-501" vertex="1">
          <mxGeometry y="-10" width="808.5" height="290" as="geometry" />
        </mxCell>
        <mxCell id="ud1zYiJCpAEsLUOgTDbe-503" value="" style="group" parent="ud1zYiJCpAEsLUOgTDbe-501" vertex="1" connectable="0">
          <mxGeometry x="49.25068965517221" y="65.0006884678979" width="220" height="139.9986230642042" as="geometry" />
        </mxCell>
        <mxCell id="ud1zYiJCpAEsLUOgTDbe-504" value="In memory" style="rounded=1;whiteSpace=wrap;html=1;fontSize=12;fillColor=#787C82;fontStyle=1;fontColor=#ffffff;verticalAlign=top;" parent="ud1zYiJCpAEsLUOgTDbe-503" vertex="1">
          <mxGeometry width="220" height="139.9986230642042" as="geometry" />
        </mxCell>
        <mxCell id="ud1zYiJCpAEsLUOgTDbe-505" value="Repositories" style="rounded=1;whiteSpace=wrap;html=1;fontSize=12;fillColor=#3E3F42;fontStyle=1;fontColor=#ffffff;verticalAlign=top;" parent="ud1zYiJCpAEsLUOgTDbe-503" vertex="1">
          <mxGeometry x="10" y="28.999714777585154" width="200" height="100.99900663917589" as="geometry" />
        </mxCell>
        <mxCell id="ud1zYiJCpAEsLUOgTDbe-506" value="users-in-memory" style="rounded=1;whiteSpace=wrap;html=1;fontSize=12;fillColor=#151517;fontStyle=1;fontColor=#ffffff;" parent="ud1zYiJCpAEsLUOgTDbe-503" vertex="1">
          <mxGeometry x="45" y="68.99932136735778" width="130" height="39.779608753528876" as="geometry" />
        </mxCell>
        <mxCell id="ud1zYiJCpAEsLUOgTDbe-507" value="" style="group" parent="ud1zYiJCpAEsLUOgTDbe-501" vertex="1" connectable="0">
          <mxGeometry x="299.2506896551722" y="65.00308827028486" width="460" height="139.9986230642042" as="geometry" />
        </mxCell>
        <mxCell id="ud1zYiJCpAEsLUOgTDbe-508" value="Prisma" style="rounded=1;whiteSpace=wrap;html=1;fontSize=12;fillColor=#787C82;fontStyle=1;fontColor=#ffffff;verticalAlign=top;" parent="ud1zYiJCpAEsLUOgTDbe-507" vertex="1">
          <mxGeometry width="460" height="139.9986230642042" as="geometry" />
        </mxCell>
        <mxCell id="ud1zYiJCpAEsLUOgTDbe-509" value="" style="group" parent="ud1zYiJCpAEsLUOgTDbe-507" vertex="1" connectable="0">
          <mxGeometry x="10.75" y="28.999714777585154" width="200" height="100.99900663917589" as="geometry" />
        </mxCell>
        <mxCell id="ud1zYiJCpAEsLUOgTDbe-510" value="Mappers" style="rounded=1;whiteSpace=wrap;html=1;fontSize=12;fillColor=#3E3F42;fontStyle=1;fontColor=#ffffff;verticalAlign=top;" parent="ud1zYiJCpAEsLUOgTDbe-509" vertex="1">
          <mxGeometry width="200" height="100.99900663917589" as="geometry" />
        </mxCell>
        <mxCell id="ud1zYiJCpAEsLUOgTDbe-511" value="user-prisma" style="rounded=1;whiteSpace=wrap;html=1;fontSize=12;fillColor=#151517;fontStyle=1;fontColor=#ffffff;" parent="ud1zYiJCpAEsLUOgTDbe-509" vertex="1">
          <mxGeometry x="35" y="39.999606589772625" width="130" height="39.779608753528876" as="geometry" />
        </mxCell>
        <mxCell id="ud1zYiJCpAEsLUOgTDbe-512" value="" style="group" parent="ud1zYiJCpAEsLUOgTDbe-507" vertex="1" connectable="0">
          <mxGeometry x="250.75" y="28.999714777585154" width="200" height="100.99900663917589" as="geometry" />
        </mxCell>
        <mxCell id="ud1zYiJCpAEsLUOgTDbe-513" value="Repositories" style="rounded=1;whiteSpace=wrap;html=1;fontSize=12;fillColor=#3E3F42;fontStyle=1;fontColor=#ffffff;verticalAlign=top;" parent="ud1zYiJCpAEsLUOgTDbe-512" vertex="1">
          <mxGeometry width="200" height="100.99900663917589" as="geometry" />
        </mxCell>
        <mxCell id="ud1zYiJCpAEsLUOgTDbe-514" value="users-prisma" style="rounded=1;whiteSpace=wrap;html=1;fontSize=12;fillColor=#151517;fontStyle=1;fontColor=#ffffff;" parent="ud1zYiJCpAEsLUOgTDbe-512" vertex="1">
          <mxGeometry x="35" y="39.999606589772625" width="130" height="39.779608753528876" as="geometry" />
        </mxCell>
        <mxCell id="ud1zYiJCpAEsLUOgTDbe-515" style="edgeStyle=orthogonalEdgeStyle;rounded=0;orthogonalLoop=1;jettySize=auto;html=1;exitX=1;exitY=0.5;exitDx=0;exitDy=0;entryX=0;entryY=0.5;entryDx=0;entryDy=0;strokeWidth=4;strokeColor=#A50040;" parent="ud1zYiJCpAEsLUOgTDbe-507" source="ud1zYiJCpAEsLUOgTDbe-510" target="ud1zYiJCpAEsLUOgTDbe-513" edge="1">
          <mxGeometry relative="1" as="geometry" />
        </mxCell>
        <mxCell id="ud1zYiJCpAEsLUOgTDbe-516" value="" style="group" parent="ud1zYiJCpAEsLUOgTDbe-500" vertex="1" connectable="0">
          <mxGeometry x="991.25" y="119.4990754859657" width="808.5" height="270" as="geometry" />
        </mxCell>
        <mxCell id="ud1zYiJCpAEsLUOgTDbe-517" value="&lt;div&gt;Http&lt;/div&gt;" style="rounded=1;whiteSpace=wrap;html=1;fontSize=18;fillColor=#FFD89E;fontStyle=1;verticalAlign=top;" parent="ud1zYiJCpAEsLUOgTDbe-516" vertex="1">
          <mxGeometry y="-20" width="808.5" height="290" as="geometry" />
        </mxCell>
        <mxCell id="ud1zYiJCpAEsLUOgTDbe-518" value="" style="group" parent="ud1zYiJCpAEsLUOgTDbe-516" vertex="1" connectable="0">
          <mxGeometry x="49.25068965517221" y="50.00308827028486" width="220" height="170" as="geometry" />
        </mxCell>
        <mxCell id="ud1zYiJCpAEsLUOgTDbe-519" value="" style="group" parent="ud1zYiJCpAEsLUOgTDbe-518" vertex="1" connectable="0">
          <mxGeometry width="220" height="170" as="geometry" />
        </mxCell>
        <mxCell id="ud1zYiJCpAEsLUOgTDbe-520" value="Mappers" style="rounded=1;whiteSpace=wrap;html=1;fontSize=12;fillColor=#FFA45E;fontStyle=1;fontColor=#ffffff;verticalAlign=top;" parent="ud1zYiJCpAEsLUOgTDbe-519" vertex="1">
          <mxGeometry width="220" height="170" as="geometry" />
        </mxCell>
        <mxCell id="ud1zYiJCpAEsLUOgTDbe-521" value="&lt;div&gt;user-http&lt;/div&gt;" style="rounded=1;whiteSpace=wrap;html=1;fontSize=12;fillColor=#FF8A05;fontStyle=1;fontColor=#ffffff;verticalAlign=middle;" parent="ud1zYiJCpAEsLUOgTDbe-519" vertex="1">
          <mxGeometry x="61.25" y="65" width="97.5" height="40" as="geometry" />
        </mxCell>
        <mxCell id="ud1zYiJCpAEsLUOgTDbe-522" value="" style="group" parent="ud1zYiJCpAEsLUOgTDbe-516" vertex="1" connectable="0">
          <mxGeometry x="299.2506896551722" y="50.00308827028486" width="460" height="170" as="geometry" />
        </mxCell>
        <mxCell id="ud1zYiJCpAEsLUOgTDbe-523" value="" style="group" parent="ud1zYiJCpAEsLUOgTDbe-522" vertex="1" connectable="0">
          <mxGeometry width="460" height="170" as="geometry" />
        </mxCell>
        <mxCell id="ud1zYiJCpAEsLUOgTDbe-524" value="Controllers" style="rounded=1;whiteSpace=wrap;html=1;fontSize=12;fillColor=#FFA45E;fontStyle=1;fontColor=#ffffff;verticalAlign=top;" parent="ud1zYiJCpAEsLUOgTDbe-523" vertex="1">
          <mxGeometry width="460" height="170" as="geometry" />
        </mxCell>
        <mxCell id="ud1zYiJCpAEsLUOgTDbe-525" value="create-user" style="rounded=1;whiteSpace=wrap;html=1;fontSize=12;fillColor=#FF8A05;fontStyle=1;fontColor=#ffffff;" parent="ud1zYiJCpAEsLUOgTDbe-523" vertex="1">
          <mxGeometry x="84.99931034482779" y="40.104646279591535" width="90" height="39.78" as="geometry" />
        </mxCell>
        <mxCell id="ud1zYiJCpAEsLUOgTDbe-526" value="update-user" style="rounded=1;whiteSpace=wrap;html=1;fontSize=12;fillColor=#FF8A05;fontStyle=1;fontColor=#ffffff;" parent="ud1zYiJCpAEsLUOgTDbe-523" vertex="1">
          <mxGeometry x="184.9993103448278" y="40.104646279591506" width="90" height="39.78" as="geometry" />
        </mxCell>
        <mxCell id="ud1zYiJCpAEsLUOgTDbe-527" value="delete-user" style="rounded=1;whiteSpace=wrap;html=1;fontSize=12;fillColor=#FF8A05;fontStyle=1;fontColor=#ffffff;" parent="ud1zYiJCpAEsLUOgTDbe-523" vertex="1">
          <mxGeometry x="284.9993103448278" y="40.104646279591506" width="90" height="39.78" as="geometry" />
        </mxCell>
        <mxCell id="ud1zYiJCpAEsLUOgTDbe-528" value="get-all-users" style="rounded=1;whiteSpace=wrap;html=1;fontSize=12;fillColor=#FF8A05;fontStyle=1;fontColor=#ffffff;" parent="ud1zYiJCpAEsLUOgTDbe-523" vertex="1">
          <mxGeometry x="27.869999999999997" y="90.11" width="96.75" height="39.78" as="geometry" />
        </mxCell>
        <mxCell id="ud1zYiJCpAEsLUOgTDbe-529" value="signin-user" style="rounded=1;whiteSpace=wrap;html=1;fontSize=12;fillColor=#FF8A05;fontStyle=1;fontColor=#ffffff;" parent="ud1zYiJCpAEsLUOgTDbe-523" vertex="1">
          <mxGeometry x="137.87" y="90.11" width="164.25" height="39.78" as="geometry" />
        </mxCell>
        <mxCell id="ud1zYiJCpAEsLUOgTDbe-530" value="get-user-by-id" style="rounded=1;whiteSpace=wrap;html=1;fontSize=12;fillColor=#FF8A05;fontStyle=1;fontColor=#ffffff;" parent="ud1zYiJCpAEsLUOgTDbe-523" vertex="1">
          <mxGeometry x="317.87" y="90.11" width="114.25" height="39.78" as="geometry" />
        </mxCell>
        <mxCell id="ud1zYiJCpAEsLUOgTDbe-531" style="edgeStyle=orthogonalEdgeStyle;rounded=0;orthogonalLoop=1;jettySize=auto;html=1;entryX=0;entryY=0.5;entryDx=0;entryDy=0;strokeWidth=4;strokeColor=#A50040;" parent="ud1zYiJCpAEsLUOgTDbe-516" source="ud1zYiJCpAEsLUOgTDbe-520" target="ud1zYiJCpAEsLUOgTDbe-524" edge="1">
          <mxGeometry relative="1" as="geometry" />
        </mxCell>
        <mxCell id="ud1zYiJCpAEsLUOgTDbe-532" value="" style="group" parent="ud1zYiJCpAEsLUOgTDbe-500" vertex="1" connectable="0">
          <mxGeometry x="1849.25" y="94.5" width="360" height="291.5" as="geometry" />
        </mxCell>
        <mxCell id="ud1zYiJCpAEsLUOgTDbe-533" value="Guards" style="rounded=1;whiteSpace=wrap;html=1;fontSize=18;fillColor=#61FFE5;fontStyle=1;verticalAlign=top;" parent="ud1zYiJCpAEsLUOgTDbe-532" vertex="1">
          <mxGeometry width="360" height="291.5" as="geometry" />
        </mxCell>
        <mxCell id="ud1zYiJCpAEsLUOgTDbe-534" value="auth" style="rounded=1;whiteSpace=wrap;html=1;fontSize=12;fillColor=#00FFE5;fontStyle=1;fontColor=#ffffff;" parent="ud1zYiJCpAEsLUOgTDbe-532" vertex="1">
          <mxGeometry x="135" y="125.85867383512482" width="90" height="39.784946236559136" as="geometry" />
        </mxCell>
        <mxCell id="ud1zYiJCpAEsLUOgTDbe-535" value="" style="group" parent="ud1zYiJCpAEsLUOgTDbe-500" vertex="1" connectable="0">
          <mxGeometry x="2259.25" y="94.5" width="360" height="291.5" as="geometry" />
        </mxCell>
        <mxCell id="ud1zYiJCpAEsLUOgTDbe-536" value="Services" style="rounded=1;whiteSpace=wrap;html=1;fontSize=18;fillColor=#61FFE5;fontStyle=1;verticalAlign=top;" parent="ud1zYiJCpAEsLUOgTDbe-535" vertex="1">
          <mxGeometry width="360" height="291.5" as="geometry" />
        </mxCell>
        <mxCell id="ud1zYiJCpAEsLUOgTDbe-537" value="auth" style="rounded=1;whiteSpace=wrap;html=1;fontSize=12;fillColor=#00FFE5;fontStyle=1;fontColor=#ffffff;" parent="ud1zYiJCpAEsLUOgTDbe-535" vertex="1">
          <mxGeometry x="85" y="125.85867383512482" width="90" height="39.784946236559136" as="geometry" />
        </mxCell>
        <mxCell id="ud1zYiJCpAEsLUOgTDbe-538" value="hash" style="rounded=1;whiteSpace=wrap;html=1;fontSize=12;fillColor=#00FFE5;fontStyle=1;fontColor=#ffffff;" parent="ud1zYiJCpAEsLUOgTDbe-535" vertex="1">
          <mxGeometry x="185" y="125.8586738351248" width="90" height="39.784946236559136" as="geometry" />
        </mxCell>
        <mxCell id="ud1zYiJCpAEsLUOgTDbe-539" style="edgeStyle=orthogonalEdgeStyle;rounded=0;orthogonalLoop=1;jettySize=auto;html=1;entryX=0.997;entryY=0.412;entryDx=0;entryDy=0;entryPerimeter=0;strokeColor=#A50040;strokeWidth=4;" parent="ud1zYiJCpAEsLUOgTDbe-500" source="ud1zYiJCpAEsLUOgTDbe-533" target="ud1zYiJCpAEsLUOgTDbe-524" edge="1">
          <mxGeometry relative="1" as="geometry" />
        </mxCell>
        <mxCell id="ud1zYiJCpAEsLUOgTDbe-540" style="edgeStyle=orthogonalEdgeStyle;rounded=0;orthogonalLoop=1;jettySize=auto;html=1;exitX=0.5;exitY=0;exitDx=0;exitDy=0;entryX=0.5;entryY=1;entryDx=0;entryDy=0;strokeColor=#A50040;strokeWidth=4;" parent="ud1zYiJCpAEsLUOgTDbe-462" source="ud1zYiJCpAEsLUOgTDbe-488" target="ud1zYiJCpAEsLUOgTDbe-505" edge="1">
          <mxGeometry relative="1" as="geometry">
            <Array as="points">
              <mxPoint x="555" y="1120" />
              <mxPoint x="360" y="1120" />
              <mxPoint x="360" y="870" />
            </Array>
          </mxGeometry>
        </mxCell>
        <mxCell id="ud1zYiJCpAEsLUOgTDbe-541" style="edgeStyle=orthogonalEdgeStyle;rounded=0;orthogonalLoop=1;jettySize=auto;html=1;entryX=0.558;entryY=1.004;entryDx=0;entryDy=0;entryPerimeter=0;strokeColor=#A50040;strokeWidth=4;" parent="ud1zYiJCpAEsLUOgTDbe-462" source="ud1zYiJCpAEsLUOgTDbe-488" target="ud1zYiJCpAEsLUOgTDbe-510" edge="1">
          <mxGeometry relative="1" as="geometry">
            <Array as="points">
              <mxPoint x="1045" y="1120" />
              <mxPoint x="622" y="1120" />
            </Array>
          </mxGeometry>
        </mxCell>
        <mxCell id="ud1zYiJCpAEsLUOgTDbe-542" style="edgeStyle=orthogonalEdgeStyle;rounded=0;orthogonalLoop=1;jettySize=auto;html=1;entryX=0.536;entryY=0.965;entryDx=0;entryDy=0;entryPerimeter=0;strokeWidth=4;strokeColor=#A50040;" parent="ud1zYiJCpAEsLUOgTDbe-462" source="ud1zYiJCpAEsLUOgTDbe-488" target="ud1zYiJCpAEsLUOgTDbe-513" edge="1">
          <mxGeometry relative="1" as="geometry">
            <Array as="points">
              <mxPoint x="1045" y="1120" />
              <mxPoint x="857" y="1120" />
            </Array>
          </mxGeometry>
        </mxCell>
        <mxCell id="ud1zYiJCpAEsLUOgTDbe-543" style="edgeStyle=orthogonalEdgeStyle;rounded=0;orthogonalLoop=1;jettySize=auto;html=1;entryX=0.5;entryY=1;entryDx=0;entryDy=0;strokeWidth=4;strokeColor=#A50040;" parent="ud1zYiJCpAEsLUOgTDbe-462" source="ud1zYiJCpAEsLUOgTDbe-488" target="ud1zYiJCpAEsLUOgTDbe-520" edge="1">
          <mxGeometry relative="1" as="geometry">
            <Array as="points">
              <mxPoint x="1045" y="1120" />
              <mxPoint x="1221" y="1120" />
            </Array>
          </mxGeometry>
        </mxCell>
        <mxCell id="ud1zYiJCpAEsLUOgTDbe-544" style="edgeStyle=orthogonalEdgeStyle;rounded=0;orthogonalLoop=1;jettySize=auto;html=1;entryX=0.5;entryY=0;entryDx=0;entryDy=0;strokeColor=#A50040;strokeWidth=4;exitX=0.5;exitY=0;exitDx=0;exitDy=0;" parent="ud1zYiJCpAEsLUOgTDbe-462" source="ud1zYiJCpAEsLUOgTDbe-471" target="ud1zYiJCpAEsLUOgTDbe-524" edge="1">
          <mxGeometry relative="1" as="geometry">
            <Array as="points">
              <mxPoint x="2020" y="170" />
              <mxPoint x="1820" y="170" />
              <mxPoint x="1820" y="520" />
              <mxPoint x="1591" y="520" />
            </Array>
          </mxGeometry>
        </mxCell>
        <mxCell id="ud1zYiJCpAEsLUOgTDbe-545" style="edgeStyle=orthogonalEdgeStyle;rounded=0;orthogonalLoop=1;jettySize=auto;html=1;entryX=0.5;entryY=0;entryDx=0;entryDy=0;strokeColor=#A50040;strokeWidth=4;exitX=0.5;exitY=0;exitDx=0;exitDy=0;" parent="ud1zYiJCpAEsLUOgTDbe-462" source="ud1zYiJCpAEsLUOgTDbe-466" target="ud1zYiJCpAEsLUOgTDbe-524" edge="1">
          <mxGeometry relative="1" as="geometry">
            <Array as="points">
              <mxPoint x="1619" y="170" />
              <mxPoint x="1820" y="170" />
              <mxPoint x="1820" y="520" />
              <mxPoint x="1591" y="520" />
            </Array>
          </mxGeometry>
        </mxCell>
        <mxCell id="ud1zYiJCpAEsLUOgTDbe-546" style="edgeStyle=orthogonalEdgeStyle;rounded=0;orthogonalLoop=1;jettySize=auto;html=1;strokeColor=#A50040;strokeWidth=4;entryX=0.518;entryY=1.009;entryDx=0;entryDy=0;entryPerimeter=0;" parent="ud1zYiJCpAEsLUOgTDbe-462" source="ud1zYiJCpAEsLUOgTDbe-488" target="ud1zYiJCpAEsLUOgTDbe-524" edge="1">
          <mxGeometry relative="1" as="geometry">
            <mxPoint x="1531.5" y="950" as="targetPoint" />
            <Array as="points">
              <mxPoint x="1045" y="1120" />
              <mxPoint x="1600" y="1120" />
            </Array>
          </mxGeometry>
        </mxCell>
        <mxCell id="ud1zYiJCpAEsLUOgTDbe-547" style="edgeStyle=orthogonalEdgeStyle;rounded=0;orthogonalLoop=1;jettySize=auto;html=1;entryX=0.5;entryY=0;entryDx=0;entryDy=0;strokeColor=#A50040;strokeWidth=4;exitX=0.5;exitY=0;exitDx=0;exitDy=0;" parent="ud1zYiJCpAEsLUOgTDbe-462" source="ud1zYiJCpAEsLUOgTDbe-483" target="ud1zYiJCpAEsLUOgTDbe-536" edge="1">
          <mxGeometry relative="1" as="geometry">
            <Array as="points">
              <mxPoint x="839" y="80" />
              <mxPoint x="2510" y="80" />
            </Array>
          </mxGeometry>
        </mxCell>
        <mxCell id="ud1zYiJCpAEsLUOgTDbe-550" value="CATEGORIES" style="swimlane;horizontal=1;whiteSpace=wrap;html=1;fontSize=20;fontStyle=1;labelBackgroundColor=none;labelBorderColor=none;startSize=40;fillColor=#525DFF;swimlaneFillColor=#F5FAFF;" parent="ud1zYiJCpAEsLUOgTDbe-389" vertex="1">
          <mxGeometry x="5180" y="90" width="660" height="780" as="geometry">
            <mxRectangle x="158.5" y="90" width="40" height="120" as="alternateBounds" />
          </mxGeometry>
        </mxCell>
        <mxCell id="ud1zYiJCpAEsLUOgTDbe-551" value="" style="group;flipV=1;fillColor=default;rounded=1;glass=0;shadow=0;verticalAlign=middle;" parent="ud1zYiJCpAEsLUOgTDbe-550" vertex="1" connectable="0">
          <mxGeometry x="180" y="195" width="300" height="110" as="geometry" />
        </mxCell>
        <mxCell id="ud1zYiJCpAEsLUOgTDbe-552" value="Application" style="rounded=1;whiteSpace=wrap;html=1;fontSize=18;fillColor=none;fontStyle=1;verticalAlign=middle;container=1;" parent="ud1zYiJCpAEsLUOgTDbe-551" vertex="1">
          <mxGeometry width="300" height="110" as="geometry" />
        </mxCell>
        <mxCell id="ud1zYiJCpAEsLUOgTDbe-553" value="&lt;div&gt;Infrastructure&lt;/div&gt;&lt;div&gt;&lt;font color=&quot;#3b3b3b&quot; style=&quot;font-size: 16px;&quot;&gt;( categories module )&lt;/font&gt;&lt;br&gt;&lt;/div&gt;" style="rounded=1;whiteSpace=wrap;html=1;fontSize=18;fillColor=default;fontStyle=1;verticalAlign=middle;container=1;" parent="ud1zYiJCpAEsLUOgTDbe-550" vertex="1">
          <mxGeometry x="180" y="335" width="300" height="110" as="geometry" />
        </mxCell>
        <mxCell id="ud1zYiJCpAEsLUOgTDbe-554" value="" style="group;flipV=1;fillColor=default;rounded=1;glass=0;shadow=0;verticalAlign=middle;" parent="ud1zYiJCpAEsLUOgTDbe-550" vertex="1" connectable="0">
          <mxGeometry x="180" y="475" width="300" height="110" as="geometry" />
        </mxCell>
        <mxCell id="ud1zYiJCpAEsLUOgTDbe-555" value="Domain" style="rounded=1;whiteSpace=wrap;html=1;fontSize=18;fillColor=none;fontStyle=1;verticalAlign=middle;container=1;" parent="ud1zYiJCpAEsLUOgTDbe-554" vertex="1">
          <mxGeometry width="300" height="110" as="geometry" />
        </mxCell>
        <mxCell id="9z5yvFTdleW5HIJSlaxR-29" value="" style="shape=flexArrow;endArrow=classic;html=1;rounded=0;fillColor=#A50040;strokeWidth=4;strokeColor=none;" edge="1" parent="ud1zYiJCpAEsLUOgTDbe-550">
          <mxGeometry width="50" height="50" relative="1" as="geometry">
            <mxPoint x="-103" y="389" as="sourcePoint" />
            <mxPoint x="37" y="389" as="targetPoint" />
          </mxGeometry>
        </mxCell>
        <mxCell id="ud1zYiJCpAEsLUOgTDbe-562" value="TEACHERS" style="swimlane;horizontal=1;whiteSpace=wrap;html=1;fontSize=20;fontStyle=1;labelBackgroundColor=none;labelBorderColor=none;startSize=40;fillColor=#E3FF54;swimlaneFillColor=#F5FAFF;" parent="ud1zYiJCpAEsLUOgTDbe-389" vertex="1">
          <mxGeometry x="5180" y="930" width="660" height="780" as="geometry">
            <mxRectangle x="158.5" y="90" width="40" height="120" as="alternateBounds" />
          </mxGeometry>
        </mxCell>
        <mxCell id="ud1zYiJCpAEsLUOgTDbe-563" value="" style="group;flipV=1;fillColor=default;rounded=1;glass=0;shadow=0;verticalAlign=middle;" parent="ud1zYiJCpAEsLUOgTDbe-562" vertex="1" connectable="0">
          <mxGeometry x="180" y="195" width="300" height="110" as="geometry" />
        </mxCell>
        <mxCell id="ud1zYiJCpAEsLUOgTDbe-564" value="Application" style="rounded=1;whiteSpace=wrap;html=1;fontSize=18;fillColor=none;fontStyle=1;verticalAlign=middle;container=1;" parent="ud1zYiJCpAEsLUOgTDbe-563" vertex="1">
          <mxGeometry width="300" height="110" as="geometry" />
        </mxCell>
        <mxCell id="ud1zYiJCpAEsLUOgTDbe-565" value="&lt;div&gt;Infrastructure&lt;/div&gt;&lt;div&gt;&lt;font color=&quot;#3b3b3b&quot; style=&quot;font-size: 16px;&quot;&gt;( teachers module )&lt;/font&gt;&lt;br&gt;&lt;/div&gt;" style="rounded=1;whiteSpace=wrap;html=1;fontSize=18;fillColor=default;fontStyle=1;verticalAlign=middle;container=1;" parent="ud1zYiJCpAEsLUOgTDbe-562" vertex="1">
          <mxGeometry x="180" y="335" width="300" height="110" as="geometry" />
        </mxCell>
        <mxCell id="ud1zYiJCpAEsLUOgTDbe-566" value="" style="group;flipV=1;fillColor=default;rounded=1;glass=0;shadow=0;verticalAlign=middle;" parent="ud1zYiJCpAEsLUOgTDbe-562" vertex="1" connectable="0">
          <mxGeometry x="180" y="475" width="300" height="110" as="geometry" />
        </mxCell>
        <mxCell id="ud1zYiJCpAEsLUOgTDbe-567" value="Domain" style="rounded=1;whiteSpace=wrap;html=1;fontSize=18;fillColor=none;fontStyle=1;verticalAlign=middle;container=1;" parent="ud1zYiJCpAEsLUOgTDbe-566" vertex="1">
          <mxGeometry width="300" height="110" as="geometry" />
        </mxCell>
        <mxCell id="9z5yvFTdleW5HIJSlaxR-18" value="" style="shape=flexArrow;endArrow=classic;html=1;rounded=0;fillColor=#A50040;strokeWidth=4;strokeColor=none;" edge="1" parent="ud1zYiJCpAEsLUOgTDbe-389">
          <mxGeometry width="50" height="50" relative="1" as="geometry">
            <mxPoint x="1620" y="1951" as="sourcePoint" />
            <mxPoint x="1620" y="1771" as="targetPoint" />
          </mxGeometry>
        </mxCell>
        <mxCell id="9z5yvFTdleW5HIJSlaxR-23" value="" style="shape=flexArrow;endArrow=classic;html=1;rounded=0;fillColor=#A50040;strokeWidth=4;strokeColor=none;" edge="1" parent="1">
          <mxGeometry width="50" height="50" relative="1" as="geometry">
            <mxPoint x="4520" y="131" as="sourcePoint" />
            <mxPoint x="4520" y="-49" as="targetPoint" />
          </mxGeometry>
        </mxCell>
        <mxCell id="9z5yvFTdleW5HIJSlaxR-32" value="" style="shape=flexArrow;endArrow=classic;html=1;rounded=0;fillColor=#A50040;strokeWidth=4;strokeColor=none;" edge="1" parent="1">
          <mxGeometry width="50" height="50" relative="1" as="geometry">
            <mxPoint x="5397" y="-500.90999999999997" as="sourcePoint" />
            <mxPoint x="5537" y="-500.90999999999997" as="targetPoint" />
          </mxGeometry>
        </mxCell>
        <mxCell id="9z5yvFTdleW5HIJSlaxR-34" value="" style="shape=flexArrow;endArrow=classic;html=1;rounded=0;fillColor=#A50040;strokeWidth=4;strokeColor=none;" edge="1" parent="1">
          <mxGeometry width="50" height="50" relative="1" as="geometry">
            <mxPoint x="2553" y="-919" as="sourcePoint" />
            <mxPoint x="2413" y="-919" as="targetPoint" />
          </mxGeometry>
        </mxCell>
        <mxCell id="9z5yvFTdleW5HIJSlaxR-35" value="APP MODULE&lt;div&gt;&lt;font style=&quot;font-size: 18px;&quot; color=&quot;#3b3b3b&quot;&gt;main.ts&lt;/font&gt;&lt;/div&gt;" style="swimlane;horizontal=0;whiteSpace=wrap;html=1;startSize=80;fontSize=20;flipV=1;" vertex="1" parent="1">
          <mxGeometry x="200" y="-1860" width="6080" height="3540" as="geometry" />
        </mxCell>
      </root>
    </mxGraphModel>
  </diagram>
</mxfile>
